<svg width="60" height="60" viewBox="0 0 60 60" fill="none" xmlns="http://www.w3.org/2000/svg">
<path d="M0 12C0 5.37258 5.37258 0 12 0H48C54.6274 0 60 5.37258 60 12V48C60 54.6274 54.6274 60 48 60H12C5.37258 60 0 54.6274 0 48V12Z" fill="url(#paint0_linear_21397_17528)"/>
<mask id="mask0_21397_17528" style="mask-type:alpha" maskUnits="userSpaceOnUse" x="15" y="17" width="30" height="26">
<path fill-rule="evenodd" clip-rule="evenodd" d="M18.125 17.5C19.8509 17.5 21.25 18.8991 21.25 20.625C21.25 22.3509 19.8509 23.75 18.125 23.75C16.3991 23.75 15 22.3509 15 20.625C15 18.8991 16.3991 17.5 18.125 17.5ZM44.375 32.5C44.375 38.0228 39.8978 42.5 34.8512 42.5C28.8522 42.5 24.375 38.0228 24.375 32.5C24.375 26.9772 28.8522 22.5 34.8512 22.5C39.8978 22.5 44.375 26.9772 44.375 32.5ZM20.625 29.375C20.625 27.9943 19.5057 26.875 18.125 26.875C16.7443 26.875 15.625 27.9943 15.625 29.375V40C15.625 41.3807 16.7443 42.5 18.125 42.5C19.5057 42.5 20.625 41.3807 20.625 40V29.375ZM36.8316 31.4505H38.1629V30.1405H36.8412V28.5563H35.3949V33.8267C35.3949 34.6594 35.5099 35.2281 35.7493 35.5328C35.9792 35.8476 36.4197 35.9999 37.071 35.9999C37.3201 35.9999 37.6936 35.939 38.1725 35.8273L38.1054 34.6087L37.2817 34.629C37.1381 34.629 37.0327 34.5985 36.9657 34.5274C36.8986 34.4563 36.8603 34.3751 36.8507 34.2837C36.8412 34.1822 36.8316 34.0298 36.8316 33.7963V31.4505ZM32.4737 30.1506V35.8679H33.9199V30.1506H32.4737ZM30.303 30.0084C30.5557 30.0084 30.7696 30.0936 30.9349 30.2638C31.1002 30.4341 31.178 30.6422 31.178 30.8976C31.178 31.153 31.1002 31.3517 30.9349 31.5219C30.7793 31.6733 30.5752 31.7584 30.3127 31.7584C30.0599 31.7584 29.846 31.6733 29.6807 31.503C29.5155 31.3328 29.428 31.1247 29.428 30.8787C29.428 30.6328 29.5155 30.4247 29.671 30.2544C29.8363 30.0841 30.0502 30.0084 30.303 30.0084Z" fill="white"/>
</mask>
<g mask="url(#mask0_21397_17528)">
<rect x="-32.5" y="-32.5" width="125" height="125" fill="white"/>
</g>
<defs>
<linearGradient id="paint0_linear_21397_17528" x1="30" y1="0" x2="30" y2="60" gradientUnits="userSpaceOnUse">
<stop stop-color="#1D51DF"/>
<stop offset="1" stop-color="#1723D5"/>
</linearGradient>
</defs>
</svg>
