<svg width="64" height="64" viewBox="0 0 64 64" fill="none" xmlns="http://www.w3.org/2000/svg">
<g clip-path="url(#clip0_21397_14515)">
<path d="M26.6665 64C21.1548 64 16.6665 59.5146 16.6665 54C16.6665 52.896 17.5625 52 18.6665 52C19.7705 52 20.6665 52.896 20.6665 54C20.6665 57.3096 23.3599 60 26.6665 60C29.9731 60 32.6665 57.3096 32.6665 54C32.6665 52.896 33.5625 52 34.6665 52C35.7705 52 36.6665 52.896 36.6665 54C36.6665 59.5146 32.1787 64 26.6665 64Z" fill="white"/>
<path d="M48.6665 55.9995H4.6665C2.09326 55.9995 0 53.9062 0 51.333C0 49.9673 0.594727 48.6743 1.63184 47.7861C1.69873 47.7275 1.77051 47.6743 1.84521 47.6259C5.75977 44.2099 8 39.2954 8 34.1059V26.666C8 17.9809 13.8853 10.5249 22.312 8.53268C23.3892 8.28464 24.4668 8.94333 24.7202 10.021C24.9731 11.0957 24.3066 12.1728 23.2349 12.4262C16.6187 13.9887 12 19.8447 12 26.666V34.1059C12 40.5488 9.17578 46.645 4.25879 50.8286C4.21875 50.8608 4.18408 50.8901 4.14111 50.9194C4.06934 51.0102 4 51.1489 4 51.333C4 51.6953 4.3042 51.9995 4.6665 51.9995H48.6665C49.0293 51.9995 49.3335 51.6953 49.3335 51.333C49.3335 51.146 49.2642 51.0102 49.1895 50.9194C49.1494 50.8901 49.1118 50.8608 49.0747 50.8286C46.6855 48.7915 44.7998 46.333 43.4722 43.5195C42.9976 42.5219 43.4238 41.33 44.4238 40.8554C45.4321 40.3808 46.6133 40.813 47.0854 41.81C48.1411 44.0395 49.6211 45.997 51.4932 47.6342C51.5625 47.6821 51.6348 47.7329 51.6958 47.7861C52.7388 48.6743 53.3335 49.9673 53.3335 51.333C53.3335 53.9062 51.2402 55.9995 48.6665 55.9995Z" fill="white"/>
<path d="M46.6665 34.6665C37.1094 34.6665 29.3335 26.8906 29.3335 17.3335C29.3335 7.77588 37.1094 0 46.6665 0C56.2241 0 64 7.77588 64 17.3335C64 26.8906 56.2241 34.6665 46.6665 34.6665ZM46.6665 4C39.3145 4 33.3335 9.98145 33.3335 17.3335C33.3335 24.6855 39.3145 30.6665 46.6665 30.6665C54.0186 30.6665 60 24.6855 60 17.3335C60 9.98145 54.0186 4 46.6665 4Z" fill="white"/>
<path d="M47.3335 25.333C46.2295 25.333 45.3335 24.437 45.3335 23.333V14.666H44C42.896 14.666 42 13.77 42 12.666C42 11.562 42.896 10.666 44 10.666H47.3335C48.4375 10.666 49.3335 11.562 49.3335 12.666V23.333C49.3335 24.437 48.4375 25.333 47.3335 25.333Z" fill="white"/>
</g>
<defs>
<clipPath id="clip0_21397_14515">
<rect width="64" height="64" fill="white"/>
</clipPath>
</defs>
</svg>
