<svg width="131" height="57" viewBox="0 0 131 57" fill="none" xmlns="http://www.w3.org/2000/svg">
<path fill-rule="evenodd" clip-rule="evenodd" d="M19.0788 16.8303C17.3254 16.3042 15.5205 16.1627 13.8541 16.032C12.2604 15.9069 10.7933 15.7919 9.61893 15.3599C7.75771 14.6734 6.67923 13.2475 6.67923 11.3898C6.67923 8.54636 9.17768 6.34363 13.0996 6.34363C16.923 6.34363 19.5693 8.3539 19.7172 11.3898H25.5977C25.5977 5.06683 20.3051 0.710678 13.1489 0.710678C5.84602 0.710678 0.797487 5.36608 0.797487 11.6891C0.797487 16.1004 3.24782 19.5811 7.75771 20.9048C9.3141 21.3596 11.0229 21.51 12.655 21.6537H12.6551C14.3628 21.804 15.9864 21.9469 17.2633 22.4234C18.979 23.0606 20.3028 24.3843 20.3028 26.5401C20.3028 29.6289 17.7527 31.9325 13.4892 31.9325C9.37249 31.9325 6.33069 29.7263 6.33069 26.3934H0.50293C0.50293 33.0603 5.99271 37.569 13.3942 37.569C21.089 37.569 26.1376 32.7657 26.1376 26.1975C26.1376 21.4857 23.4901 18.1541 19.0788 16.8303ZM126.179 45.3225H127.439V53.7532H126.179V45.3225ZM67.5715 48.1777V46.9267C67.5715 45.948 68.2157 45.3225 69.198 45.3237H70.3034V46.5184H69.3963C69.3201 46.5135 69.2437 46.5252 69.1724 46.5526C69.101 46.5799 69.0364 46.6223 68.983 46.6769C68.9295 46.7315 68.8885 46.7969 68.8626 46.8688C68.8367 46.9407 68.8266 47.0173 68.833 47.0934V48.1777H70.3034V49.3736H68.833V53.7544H67.5715V49.3736H66.432V48.1777H67.5715ZM24.8384 45.4657C24.6744 45.4657 24.5139 45.5144 24.3775 45.6055C24.2411 45.6967 24.1347 45.8263 24.0719 45.9779C24.0091 46.1295 23.9927 46.2963 24.0247 46.4572C24.0567 46.6182 24.1357 46.766 24.2518 46.8821C24.3678 46.9981 24.5156 47.0771 24.6766 47.1091C24.8375 47.1411 25.0043 47.1247 25.156 47.0619C25.3076 46.9991 25.4371 46.8928 25.5283 46.7563C25.6195 46.6199 25.6681 46.4595 25.6681 46.2954C25.671 46.1856 25.6516 46.0764 25.6109 45.9745C25.5702 45.8725 25.5092 45.7799 25.4316 45.7022C25.354 45.6246 25.2613 45.5636 25.1594 45.5229C25.0574 45.4823 24.9482 45.4628 24.8384 45.4657ZM3.68632 49.0137C4.06346 49.043 4.47241 49.0748 4.86964 49.1952C5.86597 49.4932 6.46212 50.2455 6.46212 51.3075C6.46212 52.7897 5.32262 53.874 3.58579 53.874C1.91586 53.874 0.67661 52.8566 0.67661 51.3521H1.99331C1.99331 52.1044 2.67865 52.6031 3.60809 52.6031C4.57039 52.6031 5.14542 52.082 5.14542 51.3861C5.14542 50.8991 4.84734 50.5999 4.46008 50.4555C4.1716 50.3482 3.80527 50.3159 3.41999 50.282H3.41988H3.41974C3.05121 50.2495 2.66534 50.2155 2.31369 50.1129C1.29506 49.8148 0.743499 49.0285 0.743499 48.0322C0.743499 46.6052 1.88183 45.5549 3.53064 45.5549C5.14542 45.5549 6.34125 46.5394 6.34125 47.9665H5.01281C4.97995 47.2811 4.38262 46.827 3.51891 46.827C2.63524 46.827 2.07076 47.3245 2.07076 47.9665C2.07076 48.3866 2.31369 48.7081 2.73498 48.863C2.99853 48.9602 3.32807 48.9858 3.68632 49.0137ZM7.38803 50.9813C7.38803 49.3207 8.5334 48.0604 10.1763 48.0604C11.8134 48.0604 12.9424 49.3055 12.9377 50.9578C12.9367 51.1438 12.9182 51.3292 12.8825 51.5117H8.71178C8.88898 52.1924 9.48631 52.6618 10.2714 52.6618C10.546 52.6689 10.8177 52.6032 11.0586 52.4713C11.2996 52.3394 11.5013 52.146 11.6433 51.9107L12.6994 52.5632C12.4446 52.9741 12.0871 53.3116 11.6622 53.5423C11.2372 53.773 10.7595 53.8889 10.2761 53.8787C8.59443 53.8787 7.38803 52.6078 7.38803 50.9813ZM10.1881 49.2773C9.39829 49.2773 8.84908 49.708 8.69417 50.4379H11.6585C11.5048 49.708 10.9403 49.2773 10.1881 49.2773ZM15.3728 48.8079V48.1777H14.1347V53.7543H15.3951V50.7032C15.3951 49.9838 15.9044 49.4193 16.6461 49.4193H17.4312V48.1777H16.7787C16.2142 48.1777 15.6943 48.3866 15.3728 48.8079ZM19.2325 48.1766L20.6044 51.8943L21.9657 48.1766H23.3035L21.2123 53.7532H19.9742L17.8712 48.1766H19.2325ZM24.2083 48.1766H25.4687V53.752H24.2083V48.1766ZM26.7631 49.3724H30.049L26.7631 52.6031V53.7532H31.8304V52.5585H28.5445L31.8304 49.3278V48.1766H26.7631V49.3724ZM33.1213 48.1766H34.3817V53.752H33.1213V48.1766ZM33.7514 45.4657C33.5874 45.4657 33.4269 45.5144 33.2905 45.6055C33.1541 45.6967 33.0477 45.8263 32.9849 45.9779C32.9221 46.1295 32.9057 46.2963 32.9377 46.4572C32.9697 46.6182 33.0487 46.766 33.1648 46.8821C33.2808 46.9981 33.4286 47.0771 33.5896 47.1091C33.7505 47.1411 33.9174 47.1247 34.069 47.0619C34.2206 46.9991 34.3501 46.8928 34.4413 46.7563C34.5325 46.6199 34.5811 46.4595 34.5811 46.2954C34.584 46.1856 34.5646 46.0764 34.5239 45.9745C34.4832 45.8725 34.4222 45.7799 34.3446 45.7022C34.267 45.6246 34.1743 45.5636 34.0724 45.5229C33.9704 45.4823 33.8612 45.4628 33.7514 45.4657ZM35.5751 50.9813C35.5751 49.3325 36.8038 48.0604 38.4855 48.0604C40.1683 48.0604 41.3958 49.3278 41.3958 50.9813C41.3958 51.7532 41.0892 52.4934 40.5434 53.0392C39.9976 53.585 39.2573 53.8916 38.4855 53.8916C37.7136 53.8916 36.9733 53.585 36.4275 53.0392C35.8817 52.4934 35.5751 51.7532 35.5751 50.9813ZM36.8425 50.9778C36.8425 51.933 37.5114 52.6371 38.4855 52.6371C39.4642 52.6371 40.1343 51.933 40.1343 50.9778C40.1343 50.0002 39.4548 49.2961 38.4855 49.2961C37.5161 49.2961 36.8425 50.0037 36.8425 50.9778ZM50.2337 51.4296L46.4843 45.6758H45.1676V53.7532H46.4843V47.9994L50.2337 53.7532H51.5504V45.6758H50.2337V51.4296ZM52.8296 50.9813C52.8296 49.3325 54.0571 48.0604 55.7399 48.0604C57.4193 48.0604 58.6491 49.3278 58.6491 50.9813C58.6338 51.7429 58.3205 52.4681 57.7765 53.0013C57.2325 53.5345 56.5011 53.8332 55.7393 53.8332C54.9776 53.8332 54.2462 53.5345 53.7022 53.0013C53.1582 52.4681 52.8449 51.7429 52.8296 50.9813ZM54.0911 50.9778C54.0911 51.933 54.7659 52.6371 55.7399 52.6371C56.7151 52.6371 57.3876 51.933 57.3829 50.9778C57.3829 50.0002 56.714 49.2961 55.7399 49.2961C54.7659 49.2961 54.0911 50.0037 54.0911 50.9778ZM61.2461 47.0593H60.549L59.21 48.7187V49.3723H59.9846V52.0386C59.9846 53.0666 60.6887 53.7531 61.7226 53.7531H63.0604V52.5585H61.9866C61.5336 52.5585 61.2461 52.2592 61.2461 51.8063V49.3723H63.0604V48.1777H61.2461V47.0593ZM64.2316 48.1766H65.492V53.752H64.2316V48.1766ZM64.8618 45.4657C64.6977 45.4657 64.5373 45.5144 64.4009 45.6055C64.2644 45.6967 64.1581 45.8263 64.0953 45.9779C64.0325 46.1295 64.016 46.2963 64.0481 46.4572C64.0801 46.6182 64.1591 46.766 64.2751 46.8821C64.3912 46.9981 64.539 47.0771 64.6999 47.1091C64.8609 47.1411 65.0277 47.1247 65.1793 47.0619C65.3309 46.9991 65.4605 46.8928 65.5517 46.7563C65.6428 46.6199 65.6915 46.4595 65.6915 46.2954C65.6944 46.1856 65.6749 46.0764 65.6343 45.9745C65.5936 45.8725 65.5326 45.7799 65.4549 45.7022C65.3773 45.6246 65.2847 45.5636 65.1827 45.5229C65.0807 45.4823 64.9715 45.4628 64.8618 45.4657ZM72.5472 48.1766H71.2869V53.752H72.5472V48.1766ZM71.4561 45.6055C71.5925 45.5144 71.7529 45.4657 71.917 45.4657C72.0268 45.4628 72.136 45.4823 72.238 45.5229C72.3399 45.5636 72.4325 45.6246 72.5102 45.7022C72.5878 45.7799 72.6488 45.8725 72.6895 45.9745C72.7302 46.0764 72.7496 46.1856 72.7467 46.2954C72.7467 46.4595 72.6981 46.6199 72.6069 46.7563C72.5157 46.8928 72.3861 46.9991 72.2345 47.0619C72.0829 47.1247 71.9161 47.1411 71.7552 47.1091C71.5942 47.0771 71.4464 46.9981 71.3304 46.8821C71.2143 46.766 71.1353 46.6182 71.1033 46.4572C71.0713 46.2963 71.0877 46.1295 71.1505 45.9779C71.2133 45.8263 71.3196 45.6967 71.4561 45.6055ZM76.6288 49.2949C76.8991 49.2903 77.1662 49.355 77.4044 49.4828C77.6427 49.6105 77.8444 49.7971 77.9901 50.0249L78.9958 49.2949C78.7383 48.905 78.3861 48.5868 77.9721 48.3701C77.5581 48.1534 77.096 48.0452 76.6288 48.0557C74.9577 48.0557 73.7407 49.3278 73.7407 50.9649C73.7407 52.6019 74.9577 53.8741 76.6288 53.8741C77.0958 53.8845 77.5579 53.7765 77.9718 53.56C78.3858 53.3435 78.7381 53.0256 78.9958 52.636L77.9901 51.906C77.8442 52.1336 77.6425 52.3201 77.4043 52.4479C77.166 52.5756 76.8991 52.6404 76.6288 52.636C75.6771 52.636 75.0023 51.9319 75.0023 50.9649C75.0023 49.9979 75.6771 49.2949 76.6288 49.2949ZM81.3065 48.5802C81.7156 48.2377 82.234 48.0533 82.7675 48.0604C84.0584 48.0604 84.9902 49.0062 84.9902 50.2901V53.7579H83.7286V50.5166C83.7286 49.8301 83.2628 49.2879 82.5223 49.2879C81.7817 49.2879 81.3053 49.8301 81.3053 50.5166V53.7579H80.0449V45.3272H81.3065V48.5802ZM88.9368 48.0604C87.2939 48.0604 86.1485 49.3207 86.1485 50.9813C86.1485 52.6078 87.3549 53.8787 89.0366 53.8787C89.5198 53.8888 89.9973 53.7728 90.4221 53.5421C90.8468 53.3114 91.2041 52.974 91.4587 52.5632L90.4025 51.9107C90.261 52.146 90.0595 52.3395 89.8187 52.4715C89.5779 52.6034 89.3064 52.6691 89.0319 52.6618C88.2456 52.6618 87.6483 52.1924 87.4711 51.5117H91.6418C91.6785 51.3293 91.6974 51.1438 91.6981 50.9578C91.7028 49.3055 90.5739 48.0604 88.9368 48.0604ZM87.4546 50.4379C87.6084 49.708 88.1588 49.2773 88.9474 49.2773C89.6996 49.2773 90.2641 49.708 90.419 50.4379H87.4546ZM95.5919 45.6769H98.1913C100.537 45.6769 102.229 47.4349 102.229 49.7256C102.229 52.0163 100.538 53.7532 98.1913 53.7532H95.5919V45.6769ZM96.9192 52.4588H98.169C99.7627 52.4588 100.902 51.2747 100.902 49.7256C100.902 48.1554 99.7627 46.9713 98.169 46.9713H96.9192V52.4588ZM104.792 48.1766H103.532V53.752H104.792V48.1766ZM103.701 45.6055C103.838 45.5144 103.998 45.4657 104.162 45.4657C104.272 45.4628 104.381 45.4823 104.483 45.5229C104.585 45.5636 104.678 45.6246 104.755 45.7022C104.833 45.7799 104.894 45.8725 104.935 45.9745C104.975 46.0764 104.995 46.1856 104.992 46.2954C104.992 46.4595 104.943 46.6199 104.852 46.7563C104.761 46.8928 104.631 46.9991 104.48 47.0619C104.328 47.1247 104.161 47.1411 104 47.1091C103.839 47.0771 103.692 46.9981 103.576 46.8821C103.46 46.766 103.381 46.6182 103.348 46.4572C103.316 46.2963 103.333 46.1295 103.396 45.9779C103.459 45.8263 103.565 45.6967 103.701 45.6055ZM110.267 48.6753C109.824 48.2679 109.242 48.0461 108.64 48.0557C107.103 48.0557 105.986 49.2726 105.986 50.8323C105.986 52.3919 107.114 53.5971 108.64 53.5971C109.235 53.609 109.812 53.3961 110.256 53.0009V53.5537C110.256 54.4057 109.659 55.003 108.786 55.003C108.082 55.003 107.557 54.604 107.378 53.9961L106.204 54.428C106.537 55.5006 107.51 56.22 108.786 56.22C110.401 56.22 111.518 55.091 111.518 53.5865V48.1777H110.267V48.6753ZM108.774 52.3696C108.573 52.3746 108.372 52.3385 108.185 52.2636C107.997 52.1887 107.827 52.0765 107.684 51.9339C107.542 51.7912 107.429 51.621 107.355 51.4337C107.28 51.2463 107.244 51.0457 107.249 50.844C107.249 49.9474 107.891 49.2844 108.774 49.2844C109.658 49.2844 110.3 49.9474 110.3 50.844C110.305 51.0457 110.269 51.2463 110.194 51.4337C110.119 51.621 110.007 51.7912 109.864 51.9339C109.721 52.0765 109.551 52.1887 109.364 52.2636C109.177 52.3385 108.976 52.3746 108.774 52.3696ZM113.086 48.1766H114.346V53.752H113.086V48.1766ZM113.716 45.4657C113.552 45.4657 113.391 45.5144 113.255 45.6055C113.119 45.6967 113.012 45.8263 112.949 45.9779C112.887 46.1295 112.87 46.2963 112.902 46.4572C112.934 46.6182 113.013 46.766 113.129 46.8821C113.245 46.9981 113.393 47.0771 113.554 47.1091C113.715 47.1411 113.882 47.1247 114.033 47.0619C114.185 46.9991 114.315 46.8928 114.406 46.7563C114.497 46.6199 114.546 46.4595 114.546 46.2954C114.549 46.1856 114.529 46.0764 114.488 45.9745C114.448 45.8725 114.387 45.7799 114.309 45.7022C114.231 45.6246 114.139 45.5636 114.037 45.5229C113.935 45.4823 113.826 45.4628 113.716 45.4657ZM116.658 47.0593H117.355L117.356 48.1777H119.17V49.3723H117.356V51.8063C117.356 52.2592 117.644 52.5585 118.098 52.5585H119.17V53.7531H117.833C116.8 53.7531 116.096 53.0666 116.096 52.0386V49.3723H115.319V48.7187L116.658 47.0593ZM122.375 48.0604C121.137 48.0604 120.23 48.8818 120.146 49.985H121.377C121.454 49.5754 121.846 49.2879 122.372 49.2879C122.959 49.2879 123.401 49.6646 123.401 50.1622V50.3171L121.941 50.4497C120.801 50.5494 120.015 51.081 120.015 52.1642C120.015 53.1711 120.79 53.8787 121.941 53.8787C122.582 53.8787 123.048 53.691 123.401 53.3483V53.7579H124.64V50.1622C124.644 48.9393 123.724 48.0604 122.375 48.0604ZM123.405 51.8157C123.405 52.3895 122.918 52.7991 122.188 52.7991C121.59 52.7991 121.281 52.501 121.281 52.136C121.281 51.7711 121.515 51.4941 122.121 51.439L123.405 51.3286V51.8157ZM129.64 47.1215C129.804 47.1218 129.964 47.0733 130.101 46.9823C130.237 46.8912 130.344 46.7617 130.407 46.6101C130.47 46.4586 130.487 46.2917 130.455 46.1307C130.423 45.9697 130.344 45.8217 130.228 45.7056C130.112 45.5894 129.964 45.5103 129.803 45.4782C129.642 45.4461 129.475 45.4624 129.324 45.5252C129.172 45.588 129.042 45.6943 128.951 45.8308C128.86 45.9672 128.811 46.1277 128.811 46.2918C128.808 46.4015 128.827 46.5107 128.868 46.6127C128.908 46.7146 128.969 46.8073 129.047 46.8849C129.124 46.9626 129.217 47.0236 129.319 47.0643C129.421 47.105 129.53 47.1244 129.64 47.1215ZM129.009 48.1766H130.27V53.752H129.009V48.1766ZM59.5633 37.0233H32.2622V1.24461H59.5633V6.97849H38.0959V16.1931H50.202V21.9269H38.0959V31.2894H59.5633V37.0233ZM88.5777 26.7314L71.9616 1.24461H66.1292V37.0233H71.9616V11.5365L88.5777 37.0233H94.4101V1.24461H88.5777V26.7314ZM100.98 1.24461H112.498C122.888 1.24461 130.389 9.0486 130.389 19.1914C130.389 29.3343 122.889 37.0291 112.499 37.0291H109.876V42.7583L101.287 34.1563L109.876 25.5637V31.2847H112.4C119.46 31.2847 124.507 26.0402 124.507 19.1785C124.507 12.2183 119.458 6.9738 112.4 6.9738H106.861V19.4132L100.98 25.3654V1.24461Z" fill="#0B3EE3"/>
</svg>
