<?xml version="1.0" encoding="UTF-8"?>
<svg width="108px" height="54px" viewBox="0 0 54 27" version="1.1" xmlns="http://www.w3.org/2000/svg" xmlns:xlink="http://www.w3.org/1999/xlink">
    <title>F3416A78-9263-4271-AAF8-E640DD964ABA</title>
    <g id="Portale-Operatori" stroke="none" stroke-width="1" fill="none" fill-rule="evenodd">
        <g id="Login/disambiguazione" transform="translate(-252.000000, -484.000000)" fill="#0066CC">
            <path d="M273.517825,489.815385 C275.533244,489.815385 277.020209,490.395821 277.978488,491.556246 C278.936535,492.716337 279.415385,494.686918 279.415385,497.46743 C279.415385,500.248388 278.886466,502.180571 277.82863,503.263754 C276.770445,504.347718 275.034297,504.888863 272.619721,504.888863 C271.960693,504.888863 271.25241,504.831489 270.494058,504.716518 L270.134747,504.658698 L270.134747,510.584615 L266.123077,510.584615 L266.123077,490.160967 L270.104891,490.160967 L270.104891,490.937412 C271.40192,490.189319 272.539681,489.815385 273.517825,489.815385 Z M257.597774,489.815385 C258.738443,489.815385 260.294862,489.996789 262.267369,490.358711 L263.224473,490.53013 L263.166511,493.704101 C260.768574,493.399541 259.091504,493.246429 258.1344,493.246429 C257.176959,493.246429 256.55806,493.332416 256.278155,493.503835 C255.997461,493.675476 255.85734,493.947195 255.85734,494.318769 C255.85734,494.690455 256.046082,494.947861 256.423003,495.090987 C256.799925,495.233781 257.766483,495.4437 259.323239,495.719968 C260.879659,495.996346 261.986676,496.448915 262.644291,497.078006 C263.301568,497.707319 263.630769,498.726847 263.630769,500.137365 C263.630769,503.225682 261.687187,504.769231 257.800585,504.769231 C256.524409,504.769231 254.977444,504.597923 253.159914,504.254863 L252.231735,504.083111 L252.347659,500.880958 C254.745258,501.186184 256.412874,501.338297 257.351183,501.338297 C258.288703,501.338297 258.926735,501.247983 259.26539,501.066911 C259.603595,500.885951 259.773092,500.613899 259.773092,500.251977 C259.773092,499.889945 259.594141,499.622553 259.236353,499.451245 C258.878564,499.279493 257.950048,499.070351 256.451928,498.822265 C254.953133,498.574844 253.836662,498.155339 253.101952,497.564193 C252.366792,496.973379 252,495.920234 252,494.404534 C252,492.889056 252.521883,491.745264 253.566211,490.97349 C254.610201,490.201716 255.954018,489.815385 257.597774,489.815385 Z M306,484 L306,504.418795 L302.062462,504.418795 L302.062462,503.80621 C300.681331,504.447998 299.4871,504.769231 298.480574,504.769231 C296.329097,504.769231 294.829187,504.156307 293.980956,502.931139 C293.131922,501.70631 292.707692,499.766233 292.707692,497.112041 C292.707692,494.457397 293.215436,492.522527 294.232301,491.306753 C295.248707,490.092225 296.782965,489.484055 298.835764,489.484055 C299.467457,489.484055 300.345669,489.581285 301.470745,489.775406 L302.032939,489.892331 L302.032939,484 L306,484 Z M286.092412,499.784615 C287.313247,499.784615 288.306948,500.183137 289.068807,500.981507 C289.832504,501.781978 290.215385,502.766118 290.215385,503.938462 L281.907692,503.887928 C281.907692,502.709945 282.301362,501.732881 283.083077,500.953752 C283.866744,500.17418 284.869741,499.784615 286.092412,499.784615 Z M272.769231,493.138462 C272.062447,493.138462 271.346437,493.282522 270.620755,493.57109 L270.276923,493.715486 L270.276923,501.272991 C271.136447,501.388507 271.833226,501.446154 272.36826,501.446154 C273.475681,501.446154 274.235046,501.119528 274.645576,500.465493 C275.056218,499.812129 275.261538,498.696362 275.261538,497.119312 C275.261538,494.465337 274.431029,493.138462 272.769231,493.138462 Z M299.117312,493.138462 C297.613607,493.138462 296.861538,494.523245 296.861538,497.292364 C296.861538,498.792322 297.028809,499.859675 297.362918,500.494311 C297.69735,501.128836 298.249516,501.446154 299.019521,501.446154 C299.789959,501.446154 300.602539,501.330867 301.456396,501.10007 L301.846154,501.013213 L301.846154,493.42735 C300.825026,493.235056 299.915196,493.138462 299.117312,493.138462 Z M286.092127,489.815385 C287.313012,489.815385 288.307213,490.216657 289.069104,491.021205 C289.832832,491.826867 290.215385,492.817466 290.215385,493.998569 C290.215385,495.179004 289.832832,496.160918 289.069104,496.945871 C288.307213,497.730712 287.3168,498.123077 286.101424,498.123077 C284.882374,498.123077 283.879336,497.723586 283.090128,496.922935 C282.301264,496.124065 281.907692,495.13135 281.907692,493.947352 C281.907692,492.761239 282.301264,491.777877 283.082782,490.992591 C283.866825,490.207972 284.869749,489.815385 286.092127,489.815385 Z" id="select-idp-header-logo"></path>
        </g>
    </g>
</svg>
