<?xml version="1.0" standalone="no"?>
<!DOCTYPE svg PUBLIC "-//W3C//DTD SVG 20010904//EN"
 "http://www.w3.org/TR/2001/REC-SVG-20010904/DTD/svg10.dtd">
<svg version="1.0" xmlns="http://www.w3.org/2000/svg"
 width="1326.000000pt" height="1326.000000pt" viewBox="0 0 1326.000000 1326.000000"
 preserveAspectRatio="xMidYMid meet">
<metadata>
Created by potrace 1.14, written by Peter Selinger 2001-2017
</metadata>
<g transform="translate(0.000000,1326.000000) scale(0.100000,-0.100000)"
fill="#000000" stroke="none">
<path d="M1460 13234 c-262 -43 -489 -131 -690 -266 -108 -72 -125 -86 -228
-183 -173 -163 -319 -379 -412 -610 -48 -119 -90 -301 -106 -455 -8 -85 -8
-10082 0 -10180 6 -68 18 -144 33 -210 4 -14 7 -32 9 -40 26 -141 153 -417
262 -570 62 -88 242 -280 322 -343 232 -184 516 -305 835 -354 69 -11 10246
-10 10315 1 49 7 120 22 220 45 115 27 330 122 448 198 275 175 494 421 623
698 59 127 66 145 92 235 40 134 53 200 64 310 10 95 10 10140 1 10235 -22
215 -83 414 -190 615 -188 355 -501 631 -884 780 -91 35 -221 70 -361 97 -21
4 -2340 8 -5153 9 -4352 2 -5128 0 -5200 -12z"/>
</g>
</svg>
