<svg width="64" height="64" viewBox="0 0 64 64" fill="none" xmlns="http://www.w3.org/2000/svg">
<g clip-path="url(#clip0_21290_13959)">
<path d="M61.5385 28.3074H44.3077C41.6963 28.3074 39.1919 29.3447 37.3454 31.1913C35.4989 33.0378 34.4615 35.5422 34.4615 38.1535C34.4615 40.7649 35.4989 43.2693 37.3454 45.1158C39.1919 46.9623 41.6963 47.9997 44.3077 47.9997H54.1538V55.3843C54.153 56.0369 53.8934 56.6625 53.4319 57.1239C52.9705 57.5854 52.3449 57.845 51.6923 57.8458H12.3077C10.3493 57.8453 8.47133 57.0671 7.08656 55.6824C5.70179 54.2976 4.9236 52.4196 4.92308 50.4612V13.5382C4.9236 11.5798 5.70179 9.7018 7.08656 8.31703C8.47133 6.93225 10.3493 6.15407 12.3077 6.15355H46.7692C47.4221 6.15355 48.0482 6.41289 48.5098 6.87451C48.9714 7.33614 49.2308 7.96224 49.2308 8.61508V11.0766H12.3077C11.6549 11.0766 11.0288 11.336 10.5671 11.7976C10.1055 12.2592 9.84615 12.8853 9.84615 13.5382C9.84615 14.191 10.1055 14.8171 10.5671 15.2787C11.0288 15.7404 11.6549 15.9997 12.3077 15.9997H51.6923C52.3449 16.0005 52.9705 16.2602 53.4319 16.7216C53.8934 17.183 54.153 17.8087 54.1538 18.4612V20.9745C54.1538 21.6273 54.4132 22.2534 54.8748 22.715C55.3364 23.1767 55.9625 23.436 56.6154 23.436C57.2682 23.436 57.8943 23.1767 58.356 22.715C58.8176 22.2534 59.0769 21.6273 59.0769 20.9745V18.4612C59.1871 16.9106 58.7569 15.3696 57.8594 14.1003C56.9619 12.831 55.6525 11.9116 54.1538 11.4985V8.61508C54.1533 6.65672 53.3751 4.77872 51.9904 3.39395C50.6056 2.00918 48.7276 1.23099 46.7692 1.23047H12.3077C9.04375 1.23132 5.91373 2.52829 3.60578 4.83624C1.29782 7.1442 0.000848294 10.2742 0 13.5382V50.4612C0.000848294 53.7252 1.29782 56.8552 3.60578 59.1631C5.91373 61.4711 9.04375 62.7681 12.3077 62.7689H51.6923C53.6502 62.7668 55.5272 61.9881 56.9116 60.6036C58.2961 59.2192 59.0748 57.3422 59.0769 55.3843V47.9997H61.5385C62.1913 47.9997 62.8174 47.7404 63.279 47.2787C63.7407 46.8171 64 46.191 64 45.5382V30.7689C64 30.1161 63.7407 29.49 63.279 29.0284C62.8174 28.5667 62.1913 28.3074 61.5385 28.3074ZM59.0769 43.0766H44.3077C43.002 43.0766 41.7498 42.5579 40.8266 41.6347C39.9033 40.7114 39.3846 39.4592 39.3846 38.1535C39.3846 36.8479 39.9033 35.5957 40.8266 34.6724C41.7498 33.7491 43.002 33.2305 44.3077 33.2305H59.0769V43.0766Z" fill="white"/>
</g>
<defs>
<clipPath id="clip0_21290_13959">
<rect width="64" height="64" fill="white"/>
</clipPath>
</defs>
</svg>
