<svg width="64" height="64" viewBox="0 0 64 64" fill="none" xmlns="http://www.w3.org/2000/svg">
<path d="M58.25 0C55.1484 0 52.625 2.52338 52.625 5.625C52.625 10.1051 48.9801 13.75 44.5 13.75H44.1745C45.166 12.3315 45.75 10.6081 45.75 8.75C45.75 3.92525 41.8247 0 37 0C32.1753 0 28.25 3.92525 28.25 8.75C28.25 10.6081 28.834 12.3315 29.8255 13.75H22.9245C23.916 12.3315 24.5 10.6081 24.5 8.75C24.5 3.92525 20.5747 0 15.75 0C10.9253 0 7 3.92525 7 8.75C7 10.9136 7.79113 12.8949 9.097 14.4239C3.889 16.1655 0.125 21.0887 0.125 26.875V38.125C0.125 40.5374 2.08763 42.5 4.5 42.5H6.375V62.125C6.375 63.1605 7.2145 64 8.25 64H23.25C24.2855 64 25.125 63.1605 25.125 62.125V42.4546C25.3292 42.484 25.5378 42.5 25.75 42.5H27.625V62.125C27.625 63.1605 28.4645 64 29.5 64H44.5C45.5355 64 46.375 63.1605 46.375 62.125V24.91C56.182 23.9639 63.875 15.6759 63.875 5.625C63.875 2.52338 61.3516 0 58.25 0V0ZM37 3.75C39.757 3.75 42 5.993 42 8.75C42 11.507 39.757 13.75 37 13.75C34.243 13.75 32 11.507 32 8.75C32 5.993 34.243 3.75 37 3.75ZM15.75 3.75C18.507 3.75 20.75 5.993 20.75 8.75C20.75 11.507 18.507 13.75 15.75 13.75C12.993 13.75 10.75 11.507 10.75 8.75C10.75 5.993 12.993 3.75 15.75 3.75ZM21.375 60.25H17.625V44.375C17.625 43.3395 16.7855 42.5 15.75 42.5C14.7145 42.5 13.875 43.3395 13.875 44.375V60.25H10.125V40.625C10.125 39.5895 9.2855 38.75 8.25 38.75H4.5C4.15538 38.75 3.875 38.4696 3.875 38.125V26.875C3.875 21.7056 8.08063 17.5 13.25 17.5H25.3245C22.8891 19.8841 21.375 23.2057 21.375 26.875V60.25ZM44.5 21.25C43.4645 21.25 42.625 22.0895 42.625 23.125V60.25H38.875V44.375C38.875 43.3395 38.0355 42.5 37 42.5C35.9645 42.5 35.125 43.3395 35.125 44.375V60.25H31.375V40.625C31.375 39.5895 30.5355 38.75 29.5 38.75H25.75C25.4054 38.75 25.125 38.4696 25.125 38.125V26.875C25.125 21.7056 29.3306 17.5 34.5 17.5H44.5C51.0479 17.5 56.375 12.1729 56.375 5.625C56.375 4.59113 57.2161 3.75 58.25 3.75C59.2839 3.75 60.125 4.59113 60.125 5.625C60.125 14.2406 53.1156 21.25 44.5 21.25Z" fill="white"/>
</svg>
