<svg width="59" height="42" viewBox="0 0 59 42" fill="none" xmlns="http://www.w3.org/2000/svg">
<path d="M51.2765 18.7241C53.0202 9.21239 45.6923 0.5 36.1055 0.5C30.5657 0.5 25.6083 3.43882 22.8765 7.98777C19.1503 6.78372 15.319 7.29685 12.1625 9.46981C9.00774 11.6415 7.12363 15.08 6.9711 18.8408C2.75567 20.8267 0 25.0241 0 29.6357C0 30.4256 0.0774668 31.2157 0.230115 31.9843C1.34059 37.5749 6.28921 41.6328 11.9971 41.6328H46.3887C53.0668 41.6328 58.5 36.2509 58.5 29.6357C58.5 24.9153 55.6361 20.6543 51.2765 18.7241ZM46.3887 38.2051H11.9971C7.3125 38.2051 3.42773 34.4077 3.42773 29.6357C3.42773 26.0652 5.77425 22.8351 9.26677 21.5983L10.4836 21.1673L10.4053 19.8787C10.2213 16.8509 11.6048 14.0151 14.1063 12.2931C16.7515 10.4721 19.9965 10.3463 22.9668 11.6932L24.5107 12.3932L25.2277 10.8571C27.1924 6.64776 31.4623 3.92773 36.1055 3.92773C42.7207 3.92773 48.1025 9.30962 48.1025 15.9248C48.1025 17.8816 47.6897 19.0663 47.2333 20.635C48.5112 21.2983 48.718 21.4213 49.1483 21.5687C52.6916 22.7823 55.0723 26.0243 55.0723 29.6357C55.0723 34.3609 51.1768 38.2051 46.3887 38.2051Z" fill="#0073E6"/>
</svg>
