<svg width="61" height="60" viewBox="0 0 61 60" fill="none" xmlns="http://www.w3.org/2000/svg">
<g clip-path="url(#clip0_21290_16826)">
<path d="M60.363 32.3435C60.2654 31.5433 59.632 30.9129 58.8281 30.8157C58.5352 30.7804 54.8057 30.3562 50.2275 31.0017C50.6824 29.1011 50.9134 27.1498 50.9134 25.1708C50.9134 18.4646 48.2897 12.1599 43.5257 7.41791C38.7616 2.67598 32.4275 0.0644531 25.6901 0.0644531C18.9527 0.0644531 12.6186 2.67598 7.85453 7.41791C3.09049 12.1599 0.466797 18.4646 0.466797 25.1708C0.466797 31.8769 3.09049 38.1817 7.85453 42.9236C12.6186 47.6655 18.9527 50.2771 25.6901 50.2771C27.6784 50.2771 29.6387 50.0471 31.5482 49.5944C30.8997 54.1512 31.3258 57.8636 31.3615 58.1551C31.4591 58.9552 32.0925 59.5857 32.8963 59.6828C33.0649 59.7031 34.3716 59.8525 36.3234 59.8525C40.9181 59.8525 49.0867 59.0253 54.3946 53.742C61.9572 46.2144 60.4316 32.9063 60.363 32.3435ZM46.3535 31.7962C43.4089 32.6077 40.4118 33.9611 37.9402 36.1818C35.0528 34.0147 31.3616 33.1543 27.7558 33.8721C26.7164 34.0789 25.6496 33.8141 24.8296 33.1449C24.0095 32.4758 23.5392 31.4867 23.5392 30.4313C23.5392 28.4965 25.1206 26.9224 27.0645 26.9224H28.8955C31.5365 26.9224 34.0298 25.6452 35.5647 23.5061C38.0098 20.099 41.4885 17.5663 45.4646 16.2696C46.7035 18.9853 47.3939 21.9992 47.3939 25.1708C47.3939 27.4381 47.044 29.6624 46.3535 31.7962ZM33.7038 5.09435C32.3934 8.30306 29.272 10.4443 25.6901 10.4443C22.1082 10.4443 18.9868 8.30306 17.6764 5.09435C20.1569 4.10984 22.861 3.56766 25.6901 3.56766C28.5192 3.56766 31.2233 4.10984 33.7038 5.09435ZM4.84885 19.1374H10.9169C12.3424 19.1374 13.5022 20.2918 13.5022 21.7108C13.5022 22.5164 13.1156 23.286 12.468 23.7694C11.1635 24.7432 10.3075 26.1631 10.0582 27.7672C9.80881 29.3713 10.1935 30.9822 11.1413 32.303C11.8603 33.3051 12.114 34.568 11.8372 35.7679C11.5605 36.9679 10.779 37.9942 9.69301 38.5838L8.99732 38.9616C5.86975 35.2176 3.98633 30.4092 3.98633 25.1708C3.98633 23.0774 4.28819 21.0531 4.84885 19.1374ZM25.6901 46.7738C20.2981 46.7738 15.3596 44.8059 11.5598 41.5545C13.4342 40.4711 14.7813 38.6603 15.2675 36.5517C15.7694 34.375 15.3092 32.0843 14.0051 30.2669C13.1636 29.0942 13.4213 27.4366 14.5795 26.5719C16.1086 25.4305 17.0215 23.6131 17.0215 21.7106C17.0215 18.3601 14.2828 15.6341 10.9166 15.6341H6.21935C8.06863 11.9086 10.965 8.78673 14.5244 6.65246C15.306 8.43513 16.5133 10.0273 18.0465 11.2603C20.2009 12.9931 22.9155 13.9474 25.6902 13.9474C28.4649 13.9474 31.1795 12.9931 33.3339 11.2603C34.867 10.0273 36.0744 8.43513 36.8561 6.65246C39.5962 8.29558 41.9439 10.5236 43.7231 13.1621C39.3065 14.7477 35.4496 17.6397 32.7011 21.4697C31.8251 22.6905 30.4025 23.4192 28.8956 23.4192H27.0646C23.1801 23.4192 20.0198 26.5648 20.0198 30.4313C20.0198 32.5403 20.9596 34.5168 22.5983 35.854C24.2369 37.1912 26.3684 37.721 28.4462 37.3071C30.9586 36.8071 33.5288 37.3648 35.5828 38.8056C34.029 40.946 33.0081 43.3592 32.3465 45.7382C30.2026 46.4256 27.9681 46.7738 25.6901 46.7738ZM51.9058 51.2648C47.8264 55.3253 41.3548 56.2117 37.2245 56.3239L48.4307 45.1697C49.118 44.4857 49.118 43.3767 48.4307 42.6926C47.7436 42.0086 46.6293 42.0086 45.9421 42.6926L34.73 53.8527C34.8377 49.7463 35.7243 43.3089 39.8184 39.2337C44.8613 34.2143 53.5594 34.0445 56.9725 34.193C57.1264 37.5876 56.9645 46.2296 51.9058 51.2648Z" fill="#0073E6"/>
</g>
<defs>
<clipPath id="clip0_21290_16826">
<rect width="60.0667" height="59.788" fill="white" transform="translate(0.466797 0.0644531)"/>
</clipPath>
</defs>
</svg>
