<svg width="61" height="60" viewBox="0 0 61 60" fill="none" xmlns="http://www.w3.org/2000/svg">
<path d="M49.85 51.5002H45.55V43.2034C45.55 39.6071 43.7538 36.2502 40.7624 34.2585L34.3756 30.0002L40.7636 25.7411C43.7538 23.7503 45.55 20.3933 45.55 16.7971V8.50023H49.85C51.0374 8.50023 52 7.53767 52 6.35026C52 5.16276 51.0374 4.2002 49.85 4.2002H43.4H17.6H11.15C9.96256 4.2002 9 5.16276 9 6.35016C9 7.53757 9.96256 8.50013 11.15 8.50013H15.45V16.797C15.45 20.3932 17.2461 23.7502 20.2376 25.7418L26.6243 30.0002L20.2364 34.2593C17.2461 36.2502 15.45 39.6071 15.45 43.2034V51.5002H11.15C9.96256 51.5002 9 52.4628 9 53.6502C9 54.8376 9.96256 55.8002 11.15 55.8002H17.6H43.4H49.85C51.0374 55.8002 52 54.8377 52 53.6503C52 52.4629 51.0374 51.5002 49.85 51.5002ZM19.7499 16.7971V8.50023H41.2499V16.7971C41.2499 18.9554 40.1727 20.9686 38.3793 22.1627L30.5 27.4162L22.6218 22.1635C20.8272 20.9686 19.7499 18.9554 19.7499 16.7971ZM19.7499 51.5002V43.2034C19.7499 41.045 20.8272 39.0318 22.6206 37.8378L30.5 32.5843L38.3782 37.837C40.1728 39.0317 41.25 41.045 41.25 43.2034V51.5002H19.7499Z" fill="#0073E6"/>
<path d="M32.2888 23.4405C32.9475 22.4525 32.6803 21.1176 31.6923 20.4591L26.1998 16.7981V14.9488C26.1998 13.7614 25.2373 12.7988 24.0499 12.7988C22.8625 12.7988 21.8999 13.7614 21.8999 14.9488V16.7978C21.8999 18.2356 22.6169 19.5746 23.8111 20.3736L29.3075 24.0371C30.2955 24.6957 31.6303 24.4286 32.2888 23.4405Z" fill="#0073E6"/>
<path d="M37.1887 39.6263L31.6922 35.9628C30.7042 35.3042 29.3693 35.5713 28.7108 36.5593C28.0522 37.5474 28.3194 38.8822 29.3074 39.5407L34.7998 43.2017V45.051C34.7998 46.2385 35.7624 47.201 36.9498 47.201C38.1372 47.201 39.0998 46.2385 39.0998 45.051V43.202C39.0998 41.7644 38.3828 40.4254 37.1887 39.6263Z" fill="#0073E6"/>
</svg>
