<svg width="30" height="26" viewBox="0 0 30 26" fill="none" xmlns="http://www.w3.org/2000/svg">
<mask id="mask0_21290_16873" style="mask-type:alpha" maskUnits="userSpaceOnUse" x="0" y="0" width="30" height="26">
<path fill-rule="evenodd" clip-rule="evenodd" d="M3.125 0.5C4.85089 0.5 6.25 1.89911 6.25 3.625C6.25 5.35089 4.85089 6.75 3.125 6.75C1.39911 6.75 0 5.35089 0 3.625C0 1.89911 1.39911 0.5 3.125 0.5ZM29.375 15.5C29.375 21.0228 24.8978 25.5 19.8512 25.5C13.8522 25.5 9.375 21.0228 9.375 15.5C9.375 9.97715 13.8522 5.5 19.8512 5.5C24.8978 5.5 29.375 9.97715 29.375 15.5ZM5.625 12.375C5.625 10.9943 4.50571 9.875 3.125 9.875C1.74429 9.875 0.625 10.9943 0.625 12.375V23C0.625 24.3807 1.74429 25.5 3.125 25.5C4.50571 25.5 5.625 24.3807 5.625 23V12.375ZM21.8316 14.4505H23.1629V13.1405H21.8412V11.5563H20.3949V16.8267C20.3949 17.6594 20.5099 18.2281 20.7493 18.5328C20.9792 18.8476 21.4197 18.9999 22.071 18.9999C22.3201 18.9999 22.6936 18.939 23.1725 18.8273L23.1054 17.6087L22.2817 17.629C22.1381 17.629 22.0327 17.5985 21.9657 17.5274C21.8986 17.4563 21.8603 17.3751 21.8507 17.2837C21.8412 17.1822 21.8316 17.0298 21.8316 16.7963V14.4505ZM17.4737 13.1506V18.8679H18.9199V13.1506H17.4737ZM15.303 13.0084C15.5557 13.0084 15.7696 13.0936 15.9349 13.2638C16.1002 13.4341 16.178 13.6422 16.178 13.8976C16.178 14.153 16.1002 14.3517 15.9349 14.5219C15.7793 14.6733 15.5752 14.7584 15.3127 14.7584C15.0599 14.7584 14.846 14.6733 14.6807 14.503C14.5155 14.3328 14.428 14.1247 14.428 13.8787C14.428 13.6328 14.5155 13.4247 14.671 13.2544C14.8363 13.0841 15.0502 13.0084 15.303 13.0084Z" fill="white"/>
</mask>
<g mask="url(#mask0_21290_16873)">
<rect x="-47.5" y="-49.5" width="125" height="125" fill="white"/>
</g>
</svg>
