<svg width="60" height="60" viewBox="0 0 60 60" fill="none" xmlns="http://www.w3.org/2000/svg">
<path d="M47.6953 0H12.3047C5.51988 0 0 5.51988 0 12.3047V47.6953C0 54.4801 5.51988 60 12.3047 60H47.6953C54.4801 60 60 54.4801 60 47.6953V12.3047C60 5.51988 54.4801 0 47.6953 0ZM30 45.2344C27.8167 45.2344 25.7159 44.9442 23.75 44.4097L16.6406 48.0469L17.6925 41.7299C13.0559 38.7259 10.0781 34.0635 10.0781 28.8281C10.0781 19.7672 18.9975 12.4219 30 12.4219C41.0025 12.4219 49.9219 19.7672 49.9219 28.8281C49.9219 37.8891 41.0025 45.2344 30 45.2344Z" fill="#5C6F82"/>
</svg>
