<svg width="60" height="60" viewBox="0 0 60 60" fill="none" xmlns="http://www.w3.org/2000/svg">
<g clip-path="url(#clip0_21290_16859)">
<rect width="60" height="60" rx="16" fill="#5C6F82"/>
<path fill-rule="evenodd" clip-rule="evenodd" d="M31.89 17.06C31.022 15.6545 28.9781 15.6545 28.1101 17.06C27.4924 18.0603 26.2022 18.4061 25.167 17.8486C23.7126 17.0654 21.9425 18.0873 21.8935 19.7386C21.8587 20.9137 20.9142 21.8582 19.739 21.8931C18.0878 21.942 17.0659 23.7121 17.8491 25.1665C18.4065 26.2017 18.0608 27.4919 17.0605 28.1096C15.655 28.9776 15.655 31.0215 17.0605 31.8895C18.0608 32.5072 18.4065 33.7975 17.8491 34.8326C17.0659 36.2871 18.0878 38.0572 19.739 38.1061C20.9142 38.1409 21.8587 39.0854 21.8935 40.2606C21.9425 41.9118 23.7126 42.9338 25.167 42.1505C26.2022 41.5931 27.4924 41.9388 28.1101 42.9391C28.9781 44.3447 31.022 44.3447 31.89 42.9391C32.5077 41.9388 33.798 41.5931 34.8331 42.1505C36.2876 42.9338 38.0577 41.9118 38.1066 40.2606C38.1414 39.0854 39.0859 38.1409 40.2611 38.1061C41.9123 38.0572 42.9343 36.2871 42.151 34.8326C41.5936 33.7975 41.9393 32.5072 42.9396 31.8895C44.3452 31.0215 44.3452 28.9776 42.9396 28.1096C41.9393 27.4919 41.5936 26.2017 42.151 25.1665C42.9343 23.7121 41.9123 21.942 40.2611 21.8931C39.0859 21.8582 38.1414 20.9137 38.1066 19.7386C38.0577 18.0873 36.2876 17.0654 34.8331 17.8486C33.798 18.4061 32.5077 18.0603 31.89 17.06ZM30.3586 37.7033C25.928 37.7033 22.8889 34.9303 22.8889 30.6007C22.8889 26.3646 25.8853 23.4811 30.1964 23.4811C34.294 23.4811 37.1112 26.0414 37.1112 29.8691C37.1112 32.489 35.805 34.1817 33.6623 34.1817C32.5611 34.1817 31.7586 33.7224 31.5025 32.9058H31.3489C31.0074 33.7564 30.3415 34.2073 29.3683 34.2073C27.5927 34.2073 26.4146 32.7612 26.4146 30.6092C26.4146 28.5337 27.5415 27.1557 29.2147 27.1557C30.1452 27.1557 30.8793 27.581 31.2208 28.3551H31.3745V28.2019C31.3745 27.53 31.7416 27.1557 32.3903 27.1557C33.0477 27.1557 33.4062 27.53 33.4062 28.2019V31.5959C33.4062 32.1998 33.6794 32.5571 34.1575 32.5571C34.8916 32.5571 35.3611 31.5704 35.3611 30.1073C35.3611 26.9515 33.2611 25.0292 30.1964 25.0292C26.9098 25.0292 24.6475 27.2918 24.6475 30.6432C24.6475 34.0201 26.9866 36.1467 30.6062 36.1467C31.144 36.1467 31.5025 36.1041 31.8952 36.0361C32.0489 36.0191 32.1855 36.0106 32.3306 36.0106C32.8684 36.0106 33.116 36.2828 33.116 36.6996C33.116 37.0738 32.9452 37.295 32.544 37.4481C32.1001 37.6182 31.4257 37.7033 30.3586 37.7033ZM28.6854 30.6772C28.6854 31.7915 29.1464 32.4465 29.9318 32.4465C30.7171 32.4465 31.1952 31.783 31.1952 30.6772C31.1952 29.5799 30.7086 28.908 29.9318 28.908C29.1549 28.908 28.6854 29.5714 28.6854 30.6772Z" fill="white"/>
<path fill-rule="evenodd" clip-rule="evenodd" d="M73.4142 0.658347C73.0387 0.122163 72.3738 -0.0600133 71.929 0.251445L39.3697 23.0497C38.9249 23.3612 38.8686 24.0483 39.2441 24.5845C39.6195 25.1207 40.2845 25.3029 40.7293 24.9914L73.2886 2.19314C73.7334 1.88168 73.7896 1.19453 73.4142 0.658347Z" fill="white"/>
<path fill-rule="evenodd" clip-rule="evenodd" d="M-13.5157 0.658347C-13.1403 0.122163 -12.4679 -0.0548301 -12.014 0.263022L21.2137 23.5293C21.6676 23.8472 21.7313 24.5395 21.3558 25.0757C20.9804 25.6119 20.308 25.7888 19.8541 25.471L-13.3736 2.20472C-13.8275 1.88686 -13.8912 1.19453 -13.5157 0.658347Z" fill="white"/>
</g>
<defs>
<clipPath id="clip0_21290_16859">
<rect width="60" height="60" rx="16" fill="white"/>
</clipPath>
</defs>
</svg>
