<svg width="61" height="60" viewBox="0 0 61 60" fill="none" xmlns="http://www.w3.org/2000/svg">
<g clip-path="url(#clip0_21290_16792)">
<path d="M12.8047 33.6328C13.7755 33.6328 14.5625 32.8458 14.5625 31.875C14.5625 30.9042 13.7755 30.1172 12.8047 30.1172C11.8339 30.1172 11.0469 30.9042 11.0469 31.875C11.0469 32.8458 11.8339 33.6328 12.8047 33.6328Z" fill="#0073E6"/>
<path d="M32.375 0C28.498 0 25.3438 3.15422 25.3438 7.03125C25.3438 10.9083 28.498 14.0625 32.375 14.0625C36.252 14.0625 39.4062 10.9083 39.4062 7.03125C39.4062 3.15422 36.252 0 32.375 0ZM32.375 10.5469C30.4365 10.5469 28.8594 8.96977 28.8594 7.03125C28.8594 5.09273 30.4365 3.51562 32.375 3.51562C34.3135 3.51562 35.8906 5.09273 35.8906 7.03125C35.8906 8.96977 34.3135 10.5469 32.375 10.5469Z" fill="#0073E6"/>
<path d="M58.7422 24.8438C57.7714 24.8438 56.9844 25.6308 56.9844 26.6016V28.3594C56.9844 29.5342 56.4007 30.6268 55.423 31.2825C54.9298 31.6132 53.9837 32.0593 52.7156 31.7994C50.3896 23.7311 42.9397 17.8125 34.1328 17.8125L22.388 17.8358C21.8993 17.8358 21.4393 17.6088 21.1263 17.254C19.4683 15.3748 17.0759 14.2969 14.5625 14.2969H9.28906C8.74988 14.2969 8.24047 14.5444 7.90719 14.9682C7.57391 15.3921 7.45367 15.9455 7.58082 16.4695L9.3609 23.8008C8.06012 25.1616 6.9759 26.6885 6.12371 28.3595H5.77344C2.86566 28.3595 0.5 30.7252 0.5 33.6329V38.843C0.5 40.5536 1.33414 42.1638 2.73148 43.1505L5.83168 45.3398C6.91953 47.6667 8.43934 49.7254 10.3546 51.465C10.6132 51.6998 11.0469 52.193 11.0469 52.8574V57.0023C11.0469 58.6553 12.3916 60 14.0445 60H20.3539C22.0068 60 23.3516 58.6553 23.3516 57.0023V56.4844H34.1328V57.0023C34.1328 58.6553 35.4777 60 37.1305 60H43.4398C45.0927 60 46.4375 58.6553 46.4375 57.0023V54.3424C46.4375 52.9795 46.9889 51.6625 47.9901 50.6339C49.9384 48.6322 51.4556 46.1882 52.3777 43.5659C53.1017 41.5075 53.4688 39.3483 53.4688 37.1486C53.4688 36.5558 53.4405 35.9698 53.388 35.3905C53.418 35.3909 53.4481 35.3927 53.4781 35.3927C54.8589 35.3927 56.2034 34.9921 57.3809 34.2026C59.334 32.8928 60.5 30.7085 60.5 28.3594V26.6016C60.5 25.6308 59.713 24.8438 58.7422 24.8438ZM49.0613 42.3995C48.3072 44.5438 47.0657 46.5432 45.4708 48.1818C43.8271 49.8704 42.9219 52.0583 42.9219 54.3424V56.4844H37.6484C37.6484 54.5686 37.6484 53.1534 37.6484 51.2109C37.6484 50.2402 36.8614 49.4531 35.8906 49.4531C34.9198 49.4531 34.1328 50.2402 34.1328 51.2109V52.9688H23.3516V51.2109C23.3516 50.2402 22.5645 49.4531 21.5938 49.4531C20.623 49.4531 19.8359 50.2402 19.8359 51.2109C19.8359 54.3183 19.8359 54.505 19.8359 56.4844H14.5625V52.8574C14.5625 51.3615 13.9075 49.9427 12.7184 48.8627C11.0718 47.3671 9.73309 45.5044 8.84691 43.476C8.71848 43.1821 8.51211 42.9289 8.25008 42.7439L4.75941 40.2789C4.29371 39.9498 4.01562 39.4131 4.01562 38.8429V33.6328C4.01562 32.6636 4.80418 31.875 5.77344 31.875C7.18062 31.875 7.60613 31.9229 8.01383 31.6936C8.26988 31.5912 8.65051 31.2675 8.84516 30.8248C8.84574 30.8235 8.84633 30.8223 8.8468 30.821L8.84867 30.8167C9.70437 28.8596 10.9291 27.1204 12.489 25.6466L12.508 25.6287C12.5252 25.6124 12.5422 25.5957 12.5588 25.5788C13.0002 25.1288 13.1573 24.4881 13.0029 23.9004L11.5248 17.8125H14.5625C16.0677 17.8125 17.4991 18.4567 18.4899 19.5798C19.4701 20.6907 20.8909 21.328 22.3879 21.328L34.1328 21.3047C42.8561 21.3047 49.9531 28.4251 49.9531 37.1484C49.9531 38.95 49.653 40.7167 49.0613 42.3995Z" fill="#0073E6"/>
<path d="M34.133 24.8438H25.9043C24.9335 24.8438 24.1465 25.6308 24.1465 26.6016C24.1465 27.5723 24.9335 28.3594 25.9043 28.3594H34.133C35.1037 28.3594 35.8908 27.5723 35.8908 26.6016C35.8908 25.6308 35.1037 24.8438 34.133 24.8438Z" fill="#0073E6"/>
</g>
<defs>
<clipPath id="clip0_21290_16792">
<rect width="60" height="60" fill="white" transform="translate(0.5)"/>
</clipPath>
</defs>
</svg>
