<svg width="90" height="120" viewBox="0 0 90 120" fill="none" xmlns="http://www.w3.org/2000/svg">
    <mask id="mask0_2534:3278" style="mask-type:alpha" maskUnits="userSpaceOnUse" x="0" y="0" width="90" height="120">
        <path fill-rule="evenodd" clip-rule="evenodd" d="M0.165182 31.3626C0.174325 31.3295 0.183426 31.2966 0.196708 31.264C0.287737 31.0515 0.413295 30.8559 0.56815 30.6832L28.4253 0.683245C28.4337 0.672782 28.4567 0.658133 28.4567 0.658133C28.5006 0.61942 28.5456 0.583845 28.5917 0.550363C28.7371 0.419573 28.9003 0.30971 29.0761 0.224958C29.1462 0.193569 29.2174 0.166364 29.2906 0.143345C29.4789 0.0753348 29.6756 0.0355746 29.8755 0.0261579C29.8958 0.0251684 29.9147 0.0192658 29.9337 0.0133178L29.9337 0.0133168C29.9549 0.00668644 29.9763 0 30 0H87.8571C89.0405 0 90 0.959473 90 2.14286V117.857C90 119.041 89.0405 120 87.8571 120H2.14286C0.959473 120 0 119.041 0 117.857V32.1429C0 32.1211 0.00616782 32.101 0.0122585 32.0812C0.0181986 32.0618 0.0240653 32.0427 0.0240653 32.0225C0.0355746 31.8227 0.0763811 31.6249 0.143345 31.4355C0.151755 31.4112 0.15848 31.3869 0.165182 31.3626ZM27.8571 30V7.60045L7.05636 30H27.8571ZM4.28571 34.2857H30C31.1834 34.2857 32.1429 33.3262 32.1429 32.1429V4.28571H85.7143V115.714H4.28571V34.2857ZM36.0833 54.669C35.9797 54.8511 35.8479 55.0164 35.6941 55.1597C35.6808 55.1715 35.6715 55.1858 35.6622 55.2C35.6517 55.2161 35.6411 55.2322 35.625 55.2445L24.9107 63.8159C23.9868 64.5557 22.6371 64.406 21.8984 63.4821C21.1586 62.5582 21.3082 61.2085 22.2321 60.4698L28.1763 55.7143H21.4286C20.2452 55.7143 19.2857 54.7548 19.2857 53.5714C19.2857 52.388 20.2452 51.4286 21.4286 51.4286H28.1763L22.2321 46.671C21.3082 45.9323 21.1586 44.5825 21.8984 43.6586C22.6371 42.7347 23.9868 42.5851 24.9107 43.3238L35.625 51.8952C35.641 51.9079 35.6514 51.924 35.6619 51.9401C35.6713 51.9546 35.6807 51.9691 35.6941 51.981C35.8479 52.1254 35.9797 52.2907 36.0833 52.4738C36.1367 52.5419 36.1848 52.614 36.2266 52.6883C36.4955 53.246 36.4955 53.8968 36.2266 54.4545C36.1837 54.5288 36.1356 54.6 36.0833 54.669ZM68.5714 51.4286H61.8237L67.7679 46.6731C68.6918 45.9344 68.8414 44.5846 68.1016 43.6607C67.3629 42.7368 66.0132 42.5872 65.0893 43.3269L54.375 51.8984C54.3589 51.9106 54.3484 51.9267 54.3378 51.9428L54.3378 51.9429C54.3285 51.9571 54.3192 51.9714 54.3059 51.9831C54.1521 52.1265 54.0203 52.2918 53.9167 52.4738C53.8644 52.5429 53.8163 52.614 53.7734 52.6883C53.5045 53.246 53.5045 53.8968 53.7734 54.4545C53.8163 54.5288 53.8644 54.6 53.9167 54.669C54.0203 54.8511 54.1521 55.0164 54.3059 55.1597C54.3192 55.1715 54.3285 55.1858 54.3378 55.2C54.3483 55.2161 54.3589 55.2322 54.375 55.2445L65.0893 63.8159C66.0132 64.5557 67.3629 64.406 68.1016 63.4821C68.8414 62.5582 68.6918 61.2085 67.7679 60.4698L61.8237 55.7143H68.5714C69.7548 55.7143 70.7143 54.7548 70.7143 53.5714C70.7143 52.388 69.7548 51.4286 68.5714 51.4286ZM27.1174 82.7679C30.0481 75.4677 37.1338 70.6913 45 70.7143C52.8662 70.6913 59.9519 75.4677 62.8826 82.7679C63.1756 83.4783 63.0647 84.2923 62.5938 84.8992C62.1219 85.5071 61.3602 85.8147 60.5995 85.7059C59.8378 85.5981 59.1933 85.0896 58.9097 84.375C56.6193 78.704 51.1157 74.9906 45 74.9906C38.8843 74.9906 33.3806 78.704 31.0903 84.375C30.6414 85.4642 29.3984 85.9863 28.306 85.5448C27.2147 85.1032 26.6832 83.8623 27.1174 82.7679Z" fill="white"/>
    </mask>
    <g mask="url(#mask0_2534:3278)">
        <rect x="-18.9799" y="-14.2725" width="136" height="140" fill="#00C5CA"/>
    </g>
</svg>
