<svg width="120" height="33" viewBox="0 0 120 33" fill="none" xmlns="http://www.w3.org/2000/svg">
<path opacity="0.4" fill-rule="evenodd" clip-rule="evenodd" d="M115.558 25H119.291V2H115.558L115.558 4.99896C113.526 3.13597 110.824 2 107.858 2C103.856 2 100.334 4.06845 98.2915 7.20051C99.4696 9.00685 100.156 11.167 100.158 13.4881C100.158 13.4921 100.158 13.4961 100.158 13.5C100.158 13.504 100.158 13.508 100.158 13.5119C100.156 15.8331 99.4696 17.9932 98.291 19.7995C100.334 22.9316 103.856 25 107.858 25C110.824 25 113.526 23.864 115.558 22.001L115.558 25ZM100.158 13.5119C100.158 13.508 100.158 13.504 100.158 13.5C100.158 13.496 100.158 13.4921 100.158 13.4881C100.164 9.21619 103.609 5.75513 107.858 5.75513C112.11 5.75513 115.558 9.22264 115.558 13.5C115.558 17.7774 112.11 21.2449 107.858 21.2449C103.609 21.2449 100.164 17.7838 100.158 13.5119Z" fill="white"/>
<path opacity="0.4" fill-rule="evenodd" clip-rule="evenodd" d="M4.02427 5.04242L4.0243 2H0.291016V32H4.0243L4.02427 22.2909C6.05608 24.1809 8.75826 25.3333 11.7242 25.3333C15.7264 25.3333 19.2484 23.2349 21.2905 20.0575C20.1105 18.2218 19.4241 16.026 19.4241 13.6667C19.4241 11.3073 20.1105 9.11153 21.291 7.27588C19.2484 4.09842 15.7264 2 11.7242 2C8.75826 2 6.05608 3.15243 4.02427 5.04242ZM4.02429 13.6667C4.02429 9.32727 7.47166 5.80951 11.7242 5.80951C15.9767 5.80951 19.4241 9.32727 19.4241 13.6667C19.4241 18.006 15.9767 21.5238 11.7242 21.5238C7.47166 21.5238 4.02429 18.006 4.02429 13.6667Z" fill="white"/>
<path opacity="0.7" fill-rule="evenodd" clip-rule="evenodd" d="M42.291 5.00979V2H38.5359L38.5359 4.99896C36.4923 3.13597 33.7743 2 30.791 2C24.4397 2 19.291 7.14873 19.291 13.5C19.291 19.8513 24.4397 25 30.791 25C33.7743 25 36.4923 23.864 38.5359 22.001L38.5359 25H42.291V22.0464C39.9838 19.9389 38.5359 16.9029 38.5359 13.5281C38.5359 13.5247 38.5359 13.5214 38.5359 13.518C38.5388 10.1472 39.986 7.11519 42.291 5.00979ZM38.5359 13.518C38.5359 13.512 38.5359 13.506 38.5359 13.5C38.5359 9.22264 35.0684 5.75513 30.791 5.75513C26.5137 5.75513 23.0461 9.22264 23.0461 13.5C23.0461 17.7774 26.5137 21.2449 30.791 21.2449C35.0624 21.2449 38.5262 17.7872 38.5359 13.518Z" fill="white"/>
<path opacity="0.7" fill-rule="evenodd" clip-rule="evenodd" d="M81.0465 5.04199L81.0461 2H77.291V5.04241C79.5983 7.17611 81.0461 10.2499 81.0461 13.6667C81.0461 17.0835 79.5983 20.1572 77.291 22.2909V32H81.0461L81.0465 22.2913C83.0902 24.1811 85.808 25.3333 88.791 25.3333C95.1423 25.3333 100.291 20.11 100.291 13.6667C100.291 7.22334 95.1423 2 88.791 2C85.808 2 83.0902 3.15226 81.0465 5.04199ZM81.0461 13.6667C81.0461 9.32727 84.5137 5.80951 88.791 5.80951C93.0684 5.80951 96.5359 9.32727 96.5359 13.6667C96.5359 18.006 93.0684 21.5238 88.791 21.5238C84.5137 21.5238 81.0461 18.006 81.0461 13.6667Z" fill="white"/>
<path fill-rule="evenodd" clip-rule="evenodd" d="M61.1577 0V5.29301L61.3148 5.15342C63.3279 3.39199 65.9676 2.32394 68.8577 2.32394C75.1721 2.32394 80.291 7.42222 80.291 13.7113C80.291 20.0003 75.1721 25.0986 68.8577 25.0986C65.8917 25.0986 63.1895 23.9738 61.1577 22.129L61.1577 25.1495C61.1577 28.0497 59.9929 30.7756 57.9489 32.8494L57.7978 33L55.1842 30.3395C56.573 28.9806 57.3718 27.217 57.4218 25.3378L57.4243 25.1495L57.4244 22.1739C55.3925 24.0224 52.6903 25.1495 49.7243 25.1495C43.4099 25.1495 38.291 20.0409 38.291 13.7391C38.291 7.43728 43.4099 2.32866 49.7243 2.32866C52.6903 2.32866 55.3925 3.45578 57.4244 5.30425L57.4243 0H61.1577ZM49.7244 6.0545C45.4718 6.0545 42.0244 9.495 42.0244 13.7391C42.0244 17.9831 45.4718 21.4236 49.7244 21.4236C53.9769 21.4236 57.4244 17.9831 57.4244 13.7391C57.4244 9.495 53.9769 6.0545 49.7244 6.0545ZM61.1577 13.7113C61.1577 9.47577 64.6051 6.04224 68.8577 6.04224C73.1103 6.04224 76.5577 9.47577 76.5577 13.7113C76.5577 17.9467 73.1103 21.3803 68.8577 21.3803C64.6051 21.3803 61.1577 17.9467 61.1577 13.7113Z" fill="white"/>
</svg>