<svg width="80" height="22" viewBox="0 0 80 22" fill="none" xmlns="http://www.w3.org/2000/svg">
<path opacity="0.4" fill-rule="evenodd" clip-rule="evenodd" d="M76.2246 16.7319H78.7034V1.54883H76.2246L76.2246 3.52854C74.8755 2.29872 73.0813 1.54883 71.112 1.54883C68.4545 1.54883 66.116 2.91428 64.7601 4.98186C65.5428 6.17502 65.9984 7.60201 65.9994 9.13535C65.9994 9.13702 65.9994 9.1387 65.9994 9.14038C65.9994 9.14205 65.9994 9.14373 65.9994 9.14541C65.9984 10.6787 65.5428 12.1057 64.7598 13.2989C66.116 15.3665 68.4545 16.7319 71.112 16.7319C73.0813 16.7319 74.8755 15.982 76.2246 14.7522L76.2246 16.7319ZM65.9994 9.14541C65.9994 9.14373 65.9994 9.14205 65.9994 9.14038C65.9994 9.1387 65.9994 9.13702 65.9994 9.13535C66.0021 6.31401 68.29 4.0277 71.112 4.0277C73.9356 4.0277 76.2246 6.31672 76.2246 9.14038C76.2246 11.964 73.9356 14.2531 71.112 14.2531C68.29 14.2531 66.0021 11.9667 65.9994 9.14541Z" fill="white"/>
<path opacity="0.4" fill-rule="evenodd" clip-rule="evenodd" d="M2.47882 3.52854L2.47884 1.54883H0V21.07H2.47884L2.47882 14.7522C3.82791 15.982 5.62211 16.7319 7.59146 16.7319C10.2489 16.7319 12.5874 15.3665 13.9433 13.2989C13.1598 12.1044 12.7041 10.6756 12.7041 9.14038C12.7041 7.60513 13.1598 6.17633 13.9437 4.98186C12.5874 2.91428 10.2489 1.54883 7.59146 1.54883C5.62211 1.54883 3.82791 2.29872 2.47882 3.52854ZM2.47884 9.14038C2.47884 6.31672 4.76784 4.0277 7.59146 4.0277C10.4151 4.0277 12.7041 6.31672 12.7041 9.14038C12.7041 11.964 10.4151 14.2531 7.59146 14.2531C4.76784 14.2531 2.47884 11.964 2.47884 9.14038Z" fill="white"/>
<path opacity="0.7" fill-rule="evenodd" clip-rule="evenodd" d="M27.8879 3.53569V1.54883H25.4091L25.4091 3.52854C24.06 2.29872 22.2658 1.54883 20.2965 1.54883C16.1039 1.54883 12.7051 4.94768 12.7051 9.14038C12.7051 13.3331 16.1039 16.7319 20.2965 16.7319C22.2658 16.7319 24.06 15.982 25.4091 14.7522L25.4091 16.7319H27.8879V14.7821C26.3648 13.3909 25.4091 11.3868 25.4091 9.15892C25.4091 6.93108 26.3648 4.92692 27.8879 3.53569ZM15.1839 9.14038C15.1839 6.31672 17.4729 4.0277 20.2965 4.0277C23.1201 4.0277 25.4091 6.31672 25.4091 9.14038C25.4091 11.964 23.1201 14.2531 20.2965 14.2531C17.4729 14.2531 15.1839 11.964 15.1839 9.14038Z" fill="white"/>
<path opacity="0.7" fill-rule="evenodd" clip-rule="evenodd" d="M53.2956 3.52826L53.2953 1.54883H50.8164V3.52854C52.3395 4.91695 53.2953 6.91705 53.2953 9.14038C53.2953 11.3637 52.3395 13.3638 50.8164 14.7522V21.07H53.2953L53.2956 14.7525C54.6446 15.9821 56.4387 16.7319 58.408 16.7319C62.6007 16.7319 65.9995 13.3331 65.9995 9.14038C65.9995 4.94768 62.6007 1.54883 58.408 1.54883C56.4387 1.54883 54.6446 2.29861 53.2956 3.52826ZM53.2953 9.14038C53.2953 6.31672 55.5843 4.0277 58.408 4.0277C61.2316 4.0277 63.5206 6.31672 63.5206 9.14038C63.5206 11.964 61.2316 14.2531 58.408 14.2531C55.5843 14.2531 53.2953 11.964 53.2953 9.14038Z" fill="white"/>
<path fill-rule="evenodd" clip-rule="evenodd" d="M40.5913 0V3.52868L40.6957 3.43561C42.0323 2.26133 43.785 1.5493 45.704 1.5493C49.8967 1.5493 53.2955 4.94815 53.2955 9.14085C53.2955 13.3335 49.8967 16.7324 45.704 16.7324C43.7346 16.7324 41.9404 15.9825 40.5913 14.7527L40.5913 16.7663C40.5913 18.6998 39.8179 20.5171 38.4608 21.8996L38.3604 22L36.625 20.2263C37.5472 19.3204 38.0775 18.1447 38.1108 16.8919L38.1124 16.7663L38.1125 14.7826C36.7633 16.0149 34.9691 16.7663 32.9998 16.7663C28.8071 16.7663 25.4082 13.3606 25.4082 9.15939C25.4082 4.95818 28.8071 1.55244 32.9998 1.55244C34.9691 1.55244 36.7633 2.30385 38.1125 3.53617L38.1124 0H40.5913ZM32.9998 4.03634C30.1761 4.03634 27.8871 6.33001 27.8871 9.15939C27.8871 11.9888 30.1761 14.2824 32.9998 14.2824C35.8234 14.2824 38.1124 11.9888 38.1124 9.15939C38.1124 6.33001 35.8234 4.03634 32.9998 4.03634ZM40.5913 9.14085C40.5913 6.31719 42.8803 4.02817 45.704 4.02817C48.5276 4.02817 50.8167 6.31719 50.8167 9.14085C50.8167 11.9645 48.5276 14.2535 45.704 14.2535C42.8803 14.2535 40.5913 11.9645 40.5913 9.14085Z" fill="white"/>
</svg>