
<svg width="120" height="120" viewBox="0 0 120 120" fill="none" xmlns="http://www.w3.org/2000/svg">
<g id="Question">
<g id="colors/@aqua">
<mask id="mask0_77_15667" style="mask-type:luminance" maskUnits="userSpaceOnUse" x="2" y="0" width="116" height="121">
<path id="Mask" fill-rule="evenodd" clip-rule="evenodd" d="M109.583 0H78.7344C74.5018 0 71.0586 3.4432 71.0586 7.67578V21.585C65.274 13.2757 55.6548 7.82578 44.7852 7.82578H36.9266C27.737 7.82578 19.1783 12.6635 14.416 20.4984C7.95314 22.5248 3.63478 28.5448 3.83118 35.3899L4.27509 50.7286C2.90798 52.0111 2.05157 53.8315 2.05157 55.8495V57.4995C2.05157 61.3713 5.20251 64.5213 9.07579 64.5213H13.7879C14.9874 67.4883 16.7328 70.2565 18.9964 72.7786L17.4118 74.973L17.3443 75.0665C15.004 78.3075 11.2537 83.501 10.9559 83.9137C10.8287 84.0902 10.7352 84.2892 10.6803 84.4997L2.57259 115.69C2.30236 116.73 2.52407 117.814 3.18126 118.663C3.83822 119.513 4.83126 120 5.90517 120H71.2953C72.4677 120 73.5978 119.508 74.3963 118.65C75.1951 117.792 75.6052 116.629 75.5211 115.457L74.8555 106.345C74.6884 104.039 74.0762 101.832 73.0356 99.7856C72.5952 98.9203 71.5367 98.5753 70.6719 99.0155C69.8066 99.4554 69.4618 100.514 69.9017 101.379C70.7291 103.006 71.2159 104.762 71.349 106.6L72.0146 115.711C72.0343 115.984 71.9028 116.169 71.8231 116.255C71.7434 116.341 71.5684 116.485 71.2953 116.485H63.1876V109.302C63.1876 108.332 62.4008 107.545 61.4298 107.545C60.4588 107.545 59.672 108.332 59.672 109.302V116.484H21.1834L25.6686 99.2306C25.6834 99.1739 25.7345 99.1343 25.7931 99.1343H33.5595C35.1357 99.1343 36.6214 98.742 37.9271 98.0527C39.0559 98.2575 40.2123 98.3627 41.375 98.3627C46.3049 98.3627 51.0095 96.4795 54.4536 93.1615L54.4602 93.1627C54.4945 93.1698 54.5229 93.1757 54.5512 93.1813C54.6921 93.2094 54.8342 93.2316 55.7254 93.3705C56.4459 93.4827 57.6558 93.6713 59.7505 94.001C61.6597 94.2994 63.4477 94.9788 65.0659 96.0204C65.3602 96.21 65.6898 96.3005 66.0158 96.3005C66.5935 96.3005 67.1595 96.0159 67.4954 95.494C68.0209 94.6779 67.7851 93.5899 66.9688 93.0645C64.936 91.7557 62.69 90.9023 60.294 90.5278C58.3637 90.2041 57.1837 90.0314 56.4087 89.918C55.3729 89.7664 55.0607 89.7207 54.6477 89.562C53.3788 89.0723 52.5111 87.8644 52.4893 86.4541C54.568 85.5619 56.0352 83.5303 56.0537 81.172C56.0595 80.5233 55.9585 79.8912 55.7617 79.2935C59.9197 76.8286 65.8817 72.1638 68.964 64.5211H72.2727C76.1445 64.5211 79.2945 61.3711 79.2945 57.4992V55.8492C79.2945 53.6911 78.3156 51.7577 76.7797 50.4682V45.9455C77.4144 46.1128 78.0716 46.2 78.7346 46.2H84.2703C84.9099 46.2 85.4305 46.7203 85.4305 47.3602V52.3523C85.4305 53.5934 86.1892 54.6546 87.3636 55.0561C87.6763 55.163 87.9943 55.2148 88.307 55.2148C89.1685 55.2148 89.9893 54.8215 90.5457 54.1027L96.3617 46.609C96.5638 46.3491 96.868 46.2 97.1961 46.2H109.585C113.818 46.2 117.261 42.7568 117.261 38.5242V7.67578C117.261 3.4432 113.817 0 109.583 0ZM5.5672 57.4992V55.8492C5.5672 53.9147 7.14103 52.3406 9.07579 52.3406H11.9281C11.8072 55.3971 11.8864 57.9141 12.6498 61.0055H9.07579C7.14103 61.0055 5.5672 59.4326 5.5672 57.4992ZM42.9467 89.7473C42.9467 91.6261 42.3899 93.3762 41.4355 94.8455C45.0198 94.8316 48.4449 93.6023 51.1175 91.4196C49.9067 90.2723 49.1263 88.6943 48.9929 86.9384H42.9467V89.7473ZM50.1324 83.4225H42.5488C40.8296 83.4225 39.4311 84.821 39.4311 86.5402V89.7471C39.4311 92.9845 36.7972 95.6187 33.5595 95.6187H25.7931C24.1339 95.6187 22.6836 96.7402 22.2662 98.3461L17.5508 116.484H5.99892L14 85.7032L16.7987 81.8271C20.4446 76.7779 26.4428 68.4709 27.4597 67.0608C27.8246 66.555 28.3644 66.2219 28.9794 66.1233C29.6017 66.0232 30.2295 66.1744 30.744 66.5477L30.8298 66.6103C31.3883 67.0155 31.7185 67.6423 31.7368 68.3442C31.7527 68.8198 31.6163 69.2773 31.3405 69.6698L28.0639 74.3512C27.4534 75.2208 27.3786 76.3467 27.8685 77.2896C28.3588 78.233 29.3242 78.8191 30.388 78.8191H50.2363C50.8515 78.8191 51.4299 79.0589 51.8654 79.4941C52.3046 79.9336 52.5437 80.5181 52.5381 81.1423C52.5282 82.3997 51.4489 83.4225 50.1324 83.4225ZM72.2727 61.0055C74.206 61.0055 75.7789 59.4326 75.7789 57.4992V55.8492C75.7789 53.9147 74.206 52.3406 72.2727 52.3406H70.8242C70.8542 53.1038 70.8709 53.8795 70.8709 54.6633C70.8709 56.8249 70.6105 58.9486 70.1026 61.0055H72.2727ZM72.2727 48.825H70.5727C70.3667 46.8506 70.0527 44.9386 69.6324 43.1231C68.8112 39.5899 65.6931 36.979 62.0492 36.7739C55.2388 36.3921 48.2928 34.6263 41.9612 31.6671C40.1884 30.8402 38.0474 31.4112 36.9802 32.9955C36.5774 33.5941 35.7308 34.0296 34.9759 34.0125C33.7452 33.9982 32.3919 33.322 30.718 31.8851C29.5892 30.9143 28.4518 29.7778 27.2422 28.4119C26.3724 27.4273 25.1211 26.862 23.8091 26.8608H23.8046C22.5003 26.8608 21.2563 27.42 20.3905 28.3959C18.699 30.3047 17.2316 32.4961 16.029 34.9088C15.5959 35.7776 15.9491 36.833 16.8179 37.2663C17.687 37.6995 18.7421 37.3462 19.1755 36.4774C20.2407 34.3404 21.5347 32.4059 23.0213 30.7284C23.2927 30.4226 23.6281 30.3766 23.8049 30.3766C23.9863 30.3795 24.3284 30.4237 24.609 30.7413C25.9267 32.2291 27.1752 33.4753 28.427 34.5518C29.8974 35.8141 32.172 37.4963 34.9342 37.5281C36.8905 37.548 38.8299 36.5433 39.8963 34.9594C40.0025 34.8016 40.2622 34.7541 40.4738 34.8527C47.2065 37.9992 54.5992 39.8773 61.8519 40.2841C63.9467 40.402 65.7381 41.8966 66.2077 43.9177C66.7016 46.0512 67.0398 48.3363 67.2125 50.7138C67.3072 51.9816 67.3552 53.3105 67.3552 54.6635C67.3552 57.2585 66.9303 59.7884 66.0922 62.1832C63.466 69.6914 57.5886 74.1764 53.6865 76.436C52.6925 75.701 51.4949 75.3037 50.2363 75.3037H31.6885L34.2186 71.6888C34.9353 70.6687 35.292 69.4716 35.2506 68.2404C35.2046 66.4493 34.3456 64.818 32.8963 63.7664L32.8107 63.7041C31.5329 62.7771 29.9745 62.404 28.4227 62.6524C26.8785 62.9002 25.524 63.7355 24.6083 65.0046C23.9469 65.922 22.6503 67.718 21.1084 69.8538C19.1134 67.5016 17.6199 64.9294 16.6597 62.183C15.3064 58.3172 15.231 54.8452 15.5396 50.711C15.7166 48.2834 16.0674 45.9466 16.5824 43.766C16.8055 42.8213 16.2205 41.8744 15.2755 41.6512C14.3307 41.4281 13.3838 42.0131 13.1607 42.9581C12.7199 44.8252 12.3924 46.7937 12.1796 48.8255H9.07579C8.61923 48.8255 8.17345 48.8707 7.74079 48.9544L7.3454 35.2891C7.18884 29.8404 10.756 25.0727 16.0201 23.6948C16.4774 23.5751 16.8674 23.2762 17.1017 22.8656C21.1578 15.757 28.7544 11.3414 36.9266 11.3414H44.7852C60.4885 11.3414 73.2641 24.117 73.2641 39.8203V48.8962C72.9399 48.8503 72.6092 48.825 72.2727 48.825ZM109.585 42.6844C111.879 42.6844 113.745 40.8183 113.745 38.5242V7.67578C113.745 5.38172 111.878 3.51562 109.583 3.51562H78.7344C76.4406 3.51562 74.5742 5.38172 74.5742 7.67578V28.1463C75.9971 31.7648 76.7795 35.7028 76.7795 39.8203V42.1959C77.3755 42.5159 78.0388 42.6844 78.7344 42.6844H84.2703C86.8487 42.6844 88.9461 44.782 88.9461 47.3602V50.43L93.5858 44.4518C94.46 43.328 95.7753 42.6844 97.1961 42.6844H109.585ZM86.0087 16.7388C86.0087 12.2442 89.6649 8.58773 94.1595 8.58773C98.6539 8.58773 102.311 12.2442 102.311 16.7388C102.311 21.0171 98.997 24.5362 94.8017 24.8648V29.1459C94.8017 30.1167 94.0149 30.9037 93.0439 30.9037C92.0729 30.9037 91.2861 30.1167 91.2861 29.1459V23.1321C91.2861 22.1613 92.0729 21.3743 93.0439 21.3743H94.1595C96.7156 21.3743 98.795 19.2949 98.795 16.7388C98.795 14.1827 96.7156 12.1034 94.1595 12.1034C91.6037 12.1034 89.5243 14.1827 89.5243 16.7388C89.5243 17.7096 88.7375 18.4966 87.7665 18.4966C86.7955 18.4966 86.0087 17.7096 86.0087 16.7388ZM91.2861 35.34C91.2861 34.3692 92.0729 33.5822 93.0439 33.5822C94.0147 33.5822 94.8017 34.3692 94.8017 35.34V35.8549C94.8017 36.8257 94.0149 37.6127 93.0439 37.6127C92.0729 37.6127 91.2861 36.8257 91.2861 35.8549V35.34ZM34.2514 54.6464C34.2514 55.6172 33.4644 56.4042 32.4936 56.4042C31.5228 56.4042 30.7358 55.6172 30.7358 54.6464V52.6838C30.7358 51.713 31.5228 50.9259 32.4936 50.9259C33.4644 50.9259 34.2514 51.713 34.2514 52.6838V54.6464ZM58.7617 56.4042C59.7327 56.4042 60.5195 55.6172 60.5195 54.6464V52.6838C60.5195 51.713 59.7327 50.9259 58.7617 50.9259C57.7909 50.9259 57.0038 51.713 57.0038 52.6838V54.6464C57.0038 55.6172 57.7909 56.4042 58.7617 56.4042ZM49.6213 65.0529C47.2245 63.6548 44.9926 63.6548 42.5959 65.0529C41.7575 65.542 40.6808 65.2589 40.1917 64.4201C39.7025 63.5817 39.9859 62.5052 40.8245 62.0161C44.2813 59.9995 47.9356 59.9995 51.3924 62.0161C52.231 62.5052 52.5144 63.5815 52.0252 64.4201C51.6985 64.98 51.11 65.2924 50.5053 65.2924C50.2044 65.2927 49.8997 65.2153 49.6213 65.0529Z" fill="white"/>
</mask>
<g mask="url(#mask0_77_15667)">
<g id="colors/@aqua_2">
<rect id="Rectangle Copy 9" x="-5.09351" y="-3.46191" width="132" height="130" fill="#00C5CA"/>
</g>
</g>
</g>
</g>
</svg>
