<svg
  width="164"
  height="70"
  viewBox="0 0 141 60"
  fill="none"
  xmlns="http://www.w3.org/2000/svg"
>
  <path
    fill-rule="evenodd"
    clip-rule="evenodd"
    d="M19.9547 17.4279C18.0704 16.8591 16.1308 16.7058 14.3401 16.5644C12.6289 16.4292 11.0536 16.3047 9.79265 15.8387C7.79202 15.098 6.63348 13.5608 6.63348 11.548C6.63348 8.47485 9.31865 6.0917 13.5317 6.0917C17.7448 6.0917 20.4816 8.26432 20.6392 11.548H26.9575C26.9575 4.71432 21.2708 0 13.5847 0C5.89854 0 0.316422 5.0314 0.316422 11.8651C0.316422 16.6326 2.94864 20.3944 7.79327 21.8238C9.46678 22.3164 11.3044 22.4791 13.0594 22.6346C14.8924 22.7969 16.6352 22.9512 18.007 23.465C19.85 24.1537 21.272 25.5844 21.272 27.9143C21.272 31.2512 18.5339 33.7409 13.954 33.7409C9.37411 33.7409 6.26663 31.3577 6.26663 27.7544H0C0 34.9597 5.89728 39.8326 13.8469 39.8326C21.7965 39.8326 27.5361 34.6414 27.5361 27.5426C27.5361 22.4567 24.6921 18.8547 19.9534 17.4253L19.9547 17.4279ZM72.8032 51.3057V49.955H72.8019C72.8019 48.9022 73.4915 48.2212 74.5492 48.2212H75.7379V49.5123H74.7635C74.3941 49.5123 74.1571 49.752 74.1571 50.1338V51.3057H75.7379V52.5969H74.1571V57.3315H72.8032V52.5969H71.5791V51.3057H72.8032ZM26.1418 48.3759C25.6187 48.3759 25.2506 48.7703 25.2506 49.2726C25.2506 49.7749 25.6187 50.1693 26.1418 50.1693C26.665 50.1693 27.0331 49.7749 27.0331 49.2726C27.0331 48.7703 26.665 48.3759 26.1418 48.3759ZM3.42358 52.2117C3.82776 52.2437 4.26554 52.2783 4.6908 52.4066C5.76109 52.73 6.4015 53.543 6.4015 54.6908C6.4015 56.2927 5.10682 57.4646 3.31167 57.4646C1.51652 57.4646 0.18528 56.3637 0.18528 54.7377H1.59971C1.59971 55.552 2.30064 56.0898 3.33435 56.0898C4.36809 56.0898 4.98579 55.5267 4.98579 54.7745C4.98579 54.2482 4.66434 53.9248 4.24958 53.7688C3.93965 53.6527 3.54606 53.6179 3.13212 53.5812C2.7362 53.5461 2.32164 53.5094 1.94387 53.3984C0.850901 53.075 0.257129 52.2265 0.257129 51.1497C0.257129 49.6074 1.51526 48.4723 3.25115 48.4723C4.98705 48.4723 6.27039 49.5364 6.27039 51.0787H4.8446C4.80931 50.3367 4.19033 49.8472 3.23981 49.8472C2.28928 49.8472 1.68292 50.3849 1.68292 51.0787C1.68292 51.5328 1.94387 51.8803 2.39645 52.0477C2.68112 52.153 3.03688 52.1812 3.42335 52.2117H3.42358ZM7.39616 54.3319C7.39616 52.5373 8.63159 51.1751 10.3914 51.1751C12.15 51.1751 13.3628 52.5258 13.3628 54.3078C13.3628 54.5234 13.3401 54.7149 13.3035 54.9064H8.8232C9.0123 55.6471 9.65523 56.1494 10.4986 56.1494C11.1642 56.1494 11.6748 55.826 11.9723 55.3364L13.1018 56.0416C12.5786 56.9028 11.6395 57.4646 10.4986 57.4646C8.6921 57.4646 7.39616 56.1266 7.39616 54.3319ZM10.4028 52.4903C9.55942 52.4903 8.96441 52.9571 8.79799 53.746H11.9836C11.8172 52.9571 11.2462 52.4903 10.4028 52.4903ZM15.9736 51.9855V51.3057H14.6424V57.3315H15.9963V54.0313C15.9963 53.2539 16.5422 52.6438 17.3401 52.6438H18.1835V51.3045H17.4826C16.8762 51.3045 16.3178 51.5315 15.9736 51.9855ZM20.1198 51.3057L21.5935 55.3237L23.0558 51.3057H24.493L22.2465 57.3327H20.9153L18.6575 51.3057H20.1198ZM25.4637 51.3057H26.8176V57.3315H25.4637V51.3057ZM28.2093 52.5981H31.7391L28.2093 56.0885V57.3327H33.6515V56.0403H30.1217L33.6515 52.5487V51.3057H28.2093V52.5981ZM35.0395 51.3057H36.3934V57.3315H35.0395V51.3057ZM35.7164 48.3759C35.1933 48.3759 34.8252 48.7703 34.8252 49.2726C34.8252 49.7749 35.1933 50.1693 35.7164 50.1693C36.2396 50.1693 36.6077 49.7749 36.6077 49.2726C36.6077 48.7703 36.2396 48.3759 35.7164 48.3759ZM37.6755 54.3319C37.6755 52.5499 38.9954 51.1751 40.8019 51.1751C42.6084 51.1751 43.9283 52.5981 43.9283 54.3319C43.9283 56.0657 42.6097 57.4646 40.8019 57.4646C38.9941 57.4646 37.6755 56.1139 37.6755 54.3319ZM39.032 54.3319C39.032 55.3605 39.7556 56.1253 40.8019 56.1253C41.8482 56.1253 42.5731 55.3846 42.5731 54.3319C42.5731 53.2792 41.847 52.5144 40.8019 52.5144C39.7568 52.5144 39.032 53.3033 39.032 54.3319ZM54.1785 54.8215L50.1495 48.6029H48.735V57.3327H50.1495V51.1142L54.1785 57.3327H55.5929V48.6029H54.1785V54.8215ZM56.9658 54.3319C56.9658 52.5499 58.2856 51.1751 60.0922 51.1751C61.8986 51.1751 63.2185 52.5981 63.2185 54.3319C63.2185 56.0657 61.8999 57.4646 60.0922 57.4646C58.2844 57.4646 56.9658 56.1139 56.9658 54.3319ZM58.3222 54.3319C58.3222 55.3605 59.0458 56.1253 60.0922 56.1253C61.1385 56.1253 61.8633 55.3846 61.8633 54.3319C61.8633 53.2792 61.1385 52.5144 60.0922 52.5144C59.0458 52.5144 58.3222 53.3033 58.3222 54.3319ZM66.0083 50.0983H65.2595L63.8223 51.8917V52.5981H64.6544V55.4797C64.6544 56.592 65.4145 57.3327 66.5201 57.3327H67.9572V56.0416H66.8038C66.3172 56.0416 66.0083 55.7182 66.0083 55.2286V52.5981H67.9572V51.307H66.0083V50.0996V50.0983ZM69.2142 51.3057H70.5681V57.3315H69.2142V51.3057ZM69.8923 48.3759C69.3692 48.3759 69.0011 48.7703 69.0011 49.2726C69.0011 49.7749 69.3692 50.1693 69.8923 50.1693C70.4155 50.1693 70.7836 49.7749 70.7836 49.2726C70.7836 48.7703 70.4155 48.3759 69.8923 48.3759ZM78.1483 51.3057H76.7944V57.3315H78.1483V51.3057ZM76.58 49.2726C76.58 48.7703 76.9481 48.3759 77.4713 48.3759C77.9945 48.3759 78.3626 48.7703 78.3626 49.2726C78.3626 49.7749 77.9945 50.1693 77.4713 50.1693C76.9481 50.1693 76.58 49.7749 76.58 49.2726ZM82.5328 52.5132C83.1745 52.5132 83.685 52.8239 83.9939 53.302L85.0755 52.5132C84.541 51.6875 83.6258 51.1738 82.5328 51.1738C80.7376 51.1738 79.4304 52.5487 79.4304 54.318C79.4304 56.0872 80.7376 57.4634 82.5328 57.4634C83.6258 57.4634 84.541 56.9497 85.0755 56.124L83.9939 55.3352C83.685 55.8133 83.1745 56.124 82.5328 56.124C81.5104 56.124 80.7856 55.3592 80.7856 54.318C80.7856 53.2767 81.5104 52.5132 82.5328 52.5132ZM87.5564 51.7369C87.9611 51.3907 88.507 51.1751 89.1259 51.1751C90.5151 51.1751 91.5149 52.2024 91.5149 53.59V57.3327H90.1597V53.8296C90.1597 53.0889 89.6592 52.503 88.8637 52.503C88.0683 52.503 87.5564 53.0877 87.5564 53.8296V57.3327H86.2025V48.2212H87.5564V51.7369ZM95.7538 51.1751C93.9943 51.1754 92.7592 52.5375 92.7592 54.3319C92.7592 56.1266 94.0551 57.4646 95.8616 57.4646C97.0025 57.4646 97.9417 56.9028 98.4648 56.0416L97.3353 55.3364C97.0378 55.826 96.5272 56.1494 95.8616 56.1494C95.017 56.1494 94.3753 55.6471 94.185 54.9064H98.6653C98.7018 54.7149 98.7245 54.5234 98.7245 54.3078C98.7245 52.526 97.5121 51.1754 95.7538 51.1751ZM94.1623 53.746C94.3287 52.9571 94.9224 52.4903 95.7671 52.4903C96.6117 52.4903 97.1815 52.9571 97.3467 53.746H94.1623ZM103.532 48.6029H106.325V48.6017C108.845 48.6017 110.663 50.5029 110.663 52.9786C110.663 55.4544 108.845 57.3315 106.325 57.3315H103.532V48.6029ZM104.958 55.9325H106.301C108.013 55.9325 109.237 54.6756 109.237 52.9786C109.237 51.2816 108.013 50.0019 106.301 50.0019H104.958V55.9325ZM113.416 51.3057H112.062V57.3315H113.416V51.3057ZM111.849 49.2726C111.849 48.7703 112.217 48.3759 112.74 48.3759C113.263 48.3759 113.632 48.7703 113.632 49.2726C113.632 49.7749 113.263 50.1693 112.74 50.1693C112.217 50.1693 111.849 49.7749 111.849 49.2726ZM117.551 51.1751C118.24 51.1751 118.857 51.4257 119.297 51.8435V51.307H120.641V57.1539C120.641 58.7799 119.441 60 117.706 60C116.339 60 115.293 59.2225 114.936 58.0633L116.197 57.5966C116.388 58.2535 116.946 58.6847 117.707 58.6847C118.645 58.6847 119.287 58.0392 119.287 57.1184V56.521C118.847 56.9269 118.24 57.1653 117.551 57.1653C115.912 57.1653 114.699 55.8615 114.699 54.1759C114.699 52.4903 115.899 51.1751 117.551 51.1751ZM117.695 55.8374C116.744 55.8374 116.054 55.1208 116.054 54.1873C116.054 53.2538 116.743 52.5017 117.695 52.5017C118.646 52.5017 119.335 53.2183 119.335 54.1873C119.335 55.1563 118.645 55.8374 117.695 55.8374ZM122.326 51.3057H123.68V57.3315H122.326V51.3057ZM123.003 48.3759C122.48 48.3759 122.112 48.7703 122.112 49.2726C122.112 49.7749 122.48 50.1693 123.003 50.1693C123.526 50.1693 123.894 49.7749 123.894 49.2726C123.894 48.7703 123.526 48.3759 123.003 48.3759ZM126.164 50.0983H126.912L126.911 50.0996V51.307H128.86V52.5981H126.911V55.2286C126.911 55.7182 127.221 56.0416 127.708 56.0416H128.861V57.3327H127.424C126.319 57.3327 125.559 56.592 125.559 55.4797V52.5981H124.726V51.8917L126.164 50.0983ZM132.305 51.1751C130.974 51.1751 130 52.0604 129.916 53.2551H131.235C131.318 52.8125 131.747 52.5017 132.305 52.5017C132.936 52.5017 133.411 52.9089 133.411 53.4453V53.6128L131.843 53.7561C130.619 53.8639 129.774 54.4384 129.774 55.6091C129.774 56.6973 130.606 57.4621 131.843 57.4621C132.531 57.4621 133.031 57.2592 133.411 56.8888V57.3315H134.742V53.4453C134.742 52.1301 133.755 51.1738 132.307 51.1738L132.305 51.1751ZM133.411 55.2286C133.411 55.8501 132.888 56.2927 132.104 56.2927C131.462 56.2927 131.129 55.9706 131.129 55.5761C131.129 55.1817 131.379 54.8824 132.032 54.8227L133.411 54.7035V55.2286ZM136.391 48.2212H137.745V57.3327H136.391V48.2212ZM140.109 50.1693C140.632 50.1693 141 49.7749 141 49.2726C141 48.7703 140.632 48.3759 140.109 48.3759C139.586 48.3759 139.217 48.7703 139.217 49.2726C139.217 49.7749 139.586 50.1693 140.109 50.1693ZM139.432 51.3057H140.786V57.3315H139.432V51.3057ZM63.4442 39.2517H34.1167V0.58342H63.4442V6.78039H40.382V16.7392H53.3868V22.9361H40.382V33.0547H63.4442V39.2517ZM94.611 28.1286L76.7628 0.58342H70.4975V39.2517H76.7628V11.7065L94.611 39.2517H100.878V0.58342H94.611V28.1286ZM109.195 0.58342H121.568C132.73 0.58342 140.787 9.00501 140.787 19.9708C140.787 30.9366 132.731 39.253 121.57 39.253H118.752V45.4499L109.526 36.1532L118.752 26.8666V33.0547H121.464C129.045 33.0547 134.469 27.4932 134.469 19.9708C134.469 12.4485 129.045 6.78039 121.464 6.78039H115.514V26.5305L109.195 32.9634V0.58342Z"
    fill="#0B3EE3"
  />
</svg>