<svg width="164" height="70" viewBox="0 0 164 70" fill="none" xmlns="http://www.w3.org/2000/svg">
<g clip-path="url(#clip0_1_16342)">
<path fill-rule="evenodd" clip-rule="evenodd" d="M23.44 20.3406C21.2275 19.6768 18.95 19.4982 16.8472 19.3332C14.8362 19.1755 12.9849 19.0302 11.5031 18.4851C9.15447 17.6189 7.79359 15.8197 7.79359 13.4755C7.79359 9.88748 10.9463 7.10797 15.8952 7.10797C20.7197 7.10797 24.059 9.64462 24.2456 13.4755H31.666C31.666 5.49683 24.9875 0 15.9574 0C6.7422 0 0.371689 5.87443 0.371689 13.8531C0.371689 19.4196 3.46365 23.8117 9.15447 25.482C11.1184 26.0559 13.2747 26.2457 15.3341 26.427H15.3342C17.4891 26.6167 19.5379 26.797 21.1492 27.3982C23.3141 28.2023 24.9845 29.8727 24.9845 32.593C24.9845 36.4905 21.7667 39.3974 16.3868 39.3974C11.1921 39.3974 7.35378 36.6134 7.35378 32.4079H0C0 40.8204 6.9273 46.5098 16.2669 46.5098C25.9766 46.5098 32.3472 40.4488 32.3472 32.1606C32.3472 26.2151 29.0064 22.011 23.44 20.3406ZM158.585 56.2936H160.175V66.9318H158.585V56.2936ZM84.6307 59.8965V58.3179C84.6307 57.0829 85.4436 56.2936 86.6831 56.2951H88.078V57.8026H86.9334C86.8371 57.7965 86.7408 57.8112 86.6508 57.8457C86.5608 57.8803 86.4793 57.9338 86.4118 58.0026C86.3444 58.0715 86.2925 58.1541 86.2599 58.2448C86.2272 58.3355 86.2145 58.4321 86.2226 58.5282V59.8965H88.078V61.4054H86.2226V66.9334H84.6307V61.4054H83.1928V59.8965H84.6307ZM30.7079 56.4743C30.5008 56.4743 30.2984 56.5357 30.1262 56.6507C29.954 56.7658 29.8199 56.9293 29.7406 57.1206C29.6614 57.3119 29.6406 57.5224 29.681 57.7255C29.7214 57.9286 29.8211 58.1151 29.9676 58.2615C30.114 58.4079 30.3005 58.5077 30.5036 58.5481C30.7067 58.5885 30.9172 58.5677 31.1085 58.4885C31.2998 58.4092 31.4633 58.275 31.5784 58.1029C31.6934 57.9307 31.7548 57.7283 31.7548 57.5212C31.7585 57.3827 31.7339 57.2449 31.6826 57.1163C31.6313 56.9876 31.5543 56.8707 31.4563 56.7728C31.3584 56.6748 31.2415 56.5978 31.1128 56.5465C30.9841 56.4952 30.8463 56.4706 30.7079 56.4743ZM4.01697 60.9513C4.49287 60.9883 5.00891 61.0284 5.51015 61.1803C6.76737 61.5565 7.51963 62.5056 7.51963 63.8458C7.51963 65.7161 6.08175 67.0844 3.89012 67.0844C1.78291 67.0844 0.219159 65.8005 0.219159 63.9021H1.88065C1.88065 64.8513 2.74544 65.4806 3.91826 65.4806C5.13254 65.4806 5.85814 64.8231 5.85814 63.945C5.85814 63.3305 5.48201 62.9529 4.99334 62.7707C4.62932 62.6353 4.16707 62.5945 3.6809 62.5517H3.68076H3.68059C3.21555 62.5108 2.72865 62.4679 2.28491 62.3383C0.999553 61.9622 0.303563 60.97 0.303563 59.7128C0.303563 57.9121 1.73997 56.5868 3.82053 56.5868C5.85814 56.5868 7.36711 57.8292 7.36711 59.6299H5.69081C5.64935 58.7651 4.89561 58.192 3.80572 58.192C2.69066 58.192 1.97838 58.8199 1.97838 59.6299C1.97838 60.16 2.28491 60.5658 2.81653 60.7612C3.14908 60.8839 3.56492 60.9162 4.01697 60.9513ZM8.688 63.4341C8.688 61.3388 10.1333 59.7484 12.2064 59.7484C14.2722 59.7484 15.6967 61.3195 15.6908 63.4045C15.6896 63.6392 15.6663 63.8732 15.6212 64.1035H10.3584C10.582 64.9624 11.3357 65.5547 12.3264 65.5547C12.6729 65.5637 13.0157 65.4808 13.3198 65.3143C13.6238 65.1478 13.8784 64.9038 14.0575 64.607L15.3902 65.4303C15.0687 65.9488 14.6176 66.3747 14.0814 66.6657C13.5451 66.9568 12.9423 67.1032 12.3323 67.0903C10.2103 67.0903 8.688 65.4866 8.688 63.4341ZM12.2212 61.284C11.2246 61.284 10.5316 61.8275 10.3362 62.7485H14.0767C13.8827 61.8275 13.1705 61.284 12.2212 61.284ZM18.7636 60.6917V59.8965H17.2013V66.9333H18.7917V63.0832C18.7917 62.1754 19.4344 61.4632 20.3703 61.4632H21.3609V59.8965H20.5376C19.8253 59.8965 19.1693 60.16 18.7636 60.6917ZM23.634 59.895L25.3651 64.5863L27.0828 59.895H28.771L26.1321 66.9319H24.5699L21.9162 59.895H23.634ZM29.9127 59.895H31.5031V66.9304H29.9127V59.895ZM33.1364 61.404H37.2828L33.1364 65.4807V66.9319H39.5307V65.4244H35.3843L39.5307 61.3477V59.895H33.1364V61.404ZM41.1596 59.895H42.75V66.9304H41.1596V59.895ZM41.9548 56.4743C41.7477 56.4743 41.5453 56.5357 41.3731 56.6507C41.2009 56.7658 41.0668 56.9293 40.9875 57.1206C40.9083 57.3119 40.8875 57.5224 40.9279 57.7255C40.9683 57.9286 41.068 58.1151 41.2145 58.2615C41.3609 58.4079 41.5474 58.5077 41.7505 58.5481C41.9536 58.5885 42.1641 58.5677 42.3554 58.4885C42.5467 58.4092 42.7102 58.275 42.8253 58.1029C42.9403 57.9307 43.0017 57.7283 43.0017 57.5212C43.0054 57.3827 42.9808 57.2449 42.9295 57.1163C42.8782 56.9876 42.8012 56.8707 42.7032 56.7728C42.6053 56.6748 42.4884 56.5978 42.3597 56.5465C42.231 56.4952 42.0933 56.4706 41.9548 56.4743ZM44.2559 63.4341C44.2559 61.3536 45.8064 59.7484 47.9284 59.7484C50.0519 59.7484 51.6009 61.3477 51.6009 63.4341C51.6009 64.4081 51.2139 65.3422 50.5252 66.031C49.8365 66.7197 48.9024 67.1066 47.9284 67.1066C46.9544 67.1066 46.0203 66.7197 45.3316 66.031C44.6429 65.3422 44.2559 64.4081 44.2559 63.4341ZM45.8552 63.4297C45.8552 64.6351 46.6993 65.5236 47.9284 65.5236C49.1634 65.5236 50.009 64.6351 50.009 63.4297C50.009 62.1962 49.1516 61.3077 47.9284 61.3077C46.7052 61.3077 45.8552 62.2006 45.8552 63.4297ZM62.753 63.9998L58.0217 56.7394H56.3603V66.9319H58.0217V59.6714L62.753 66.9319H64.4145V56.7394H62.753V63.9998ZM66.0286 63.4341C66.0286 61.3536 67.5775 59.7484 69.701 59.7484C71.8201 59.7484 73.372 61.3477 73.372 63.4341C73.3527 64.3952 72.9574 65.3103 72.2709 65.9832C71.5844 66.656 70.6615 67.0329 69.7003 67.0329C68.7391 67.0329 67.8161 66.656 67.1297 65.9832C66.4432 65.3103 66.0479 64.3952 66.0286 63.4341ZM67.6205 63.4297C67.6205 64.6351 68.4719 65.5236 69.701 65.5236C70.9316 65.5236 71.7801 64.6351 71.7742 63.4297C71.7742 62.1962 70.9301 61.3077 69.701 61.3077C68.4719 61.3077 67.6205 62.2006 67.6205 63.4297ZM76.649 58.4852H75.7694L74.0798 60.5791V61.4039H75.0571V64.7683C75.0571 66.0655 75.9456 66.9318 77.2502 66.9318H78.9384V65.4243H77.5834C77.0118 65.4243 76.649 65.0467 76.649 64.4751V61.4039H78.9384V59.8964H76.649V58.4852ZM80.4162 59.895H82.0066V66.9304H80.4162V59.895ZM81.2115 56.4743C81.0044 56.4743 80.802 56.5357 80.6298 56.6507C80.4577 56.7658 80.3235 56.9293 80.2442 57.1206C80.165 57.3119 80.1443 57.5224 80.1847 57.7255C80.225 57.9286 80.3248 58.1151 80.4712 58.2615C80.6176 58.4079 80.8041 58.5077 81.0072 58.5481C81.2103 58.5885 81.4208 58.5677 81.6121 58.4885C81.8034 58.4092 81.9669 58.275 82.082 58.1029C82.197 57.9307 82.2584 57.7283 82.2584 57.5212C82.2621 57.3827 82.2375 57.2449 82.1862 57.1163C82.1349 56.9876 82.0579 56.8707 81.9599 56.7728C81.862 56.6748 81.7451 56.5978 81.6164 56.5465C81.4877 56.4952 81.35 56.4706 81.2115 56.4743ZM90.9094 59.895H89.319V66.9304H90.9094V59.895ZM89.5325 56.6507C89.7047 56.5357 89.9071 56.4743 90.1142 56.4743C90.2526 56.4706 90.3904 56.4952 90.5191 56.5465C90.6478 56.5978 90.7647 56.6748 90.8626 56.7728C90.9606 56.8707 91.0376 56.9876 91.0889 57.1163C91.1402 57.2449 91.1648 57.3827 91.1611 57.5212C91.1611 57.7283 91.0997 57.9307 90.9847 58.1029C90.8696 58.275 90.7061 58.4092 90.5148 58.4885C90.3235 58.5677 90.113 58.5885 89.9099 58.5481C89.7068 58.5077 89.5203 58.4079 89.3739 58.2615C89.2274 58.1151 89.1277 57.9286 89.0873 57.7255C89.0469 57.5224 89.0677 57.3119 89.1469 57.1206C89.2261 56.9293 89.3603 56.7658 89.5325 56.6507ZM96.0597 61.3062C96.4008 61.3004 96.7378 61.382 97.0385 61.5432C97.3392 61.7044 97.5936 61.9399 97.7775 62.2273L99.0466 61.3062C98.7216 60.8142 98.2771 60.4127 97.7548 60.1392C97.2324 59.8657 96.6492 59.7292 96.0597 59.7425C93.951 59.7425 92.4154 61.3477 92.4154 63.4134C92.4154 65.4792 93.951 67.0844 96.0597 67.0844C96.649 67.0976 97.2321 66.9613 97.7544 66.6881C98.2767 66.4149 98.7213 66.0137 99.0466 65.5221L97.7775 64.6011C97.5933 64.8882 97.3389 65.1235 97.0383 65.2847C96.7376 65.4459 96.4008 65.5276 96.0597 65.5221C94.8588 65.5221 94.0073 64.6336 94.0073 63.4134C94.0073 62.1932 94.8588 61.3062 96.0597 61.3062ZM101.962 60.4044C102.479 59.9722 103.133 59.7394 103.806 59.7484C105.435 59.7484 106.611 60.9419 106.611 62.5619V66.9378H105.019V62.8477C105.019 61.9815 104.431 61.2973 103.496 61.2973C102.562 61.2973 101.961 61.9815 101.961 62.8477V66.9378H100.37V56.2995H101.962V60.4044ZM111.591 59.7484C109.517 59.7484 108.072 61.3388 108.072 63.4341C108.072 65.4866 109.594 67.0903 111.716 67.0903C112.326 67.103 112.929 66.9566 113.465 66.6656C114.001 66.3745 114.452 65.9487 114.773 65.4303L113.44 64.607C113.262 64.9039 113.007 65.148 112.703 65.3145C112.4 65.481 112.057 65.5639 111.711 65.5547C110.718 65.5547 109.965 64.9624 109.741 64.1035H115.004C115.05 63.8734 115.074 63.6393 115.075 63.4045C115.081 61.3195 113.656 59.7484 111.591 59.7484ZM109.72 62.7485C109.914 61.8275 110.609 61.284 111.604 61.284C112.553 61.284 113.265 61.8275 113.461 62.7485H109.72ZM119.988 56.7408H123.268C126.229 56.7408 128.364 58.9591 128.364 61.8497C128.364 64.7402 126.23 66.9319 123.268 66.9319H119.988V56.7408ZM121.663 65.2985H123.24C125.251 65.2985 126.689 63.8043 126.689 61.8497C126.689 59.8683 125.251 58.3742 123.24 58.3742H121.663V65.2985ZM131.598 59.895H130.008V66.9304H131.598V59.895ZM130.221 56.6507C130.393 56.5357 130.596 56.4743 130.803 56.4743C130.941 56.4706 131.079 56.4952 131.208 56.5465C131.336 56.5978 131.453 56.6748 131.551 56.7728C131.649 56.8707 131.726 56.9876 131.778 57.1163C131.829 57.2449 131.854 57.3827 131.85 57.5212C131.85 57.7283 131.788 57.9307 131.673 58.1029C131.558 58.275 131.395 58.4092 131.204 58.4885C131.012 58.5677 130.802 58.5885 130.599 58.5481C130.396 58.5077 130.209 58.4079 130.063 58.2615C129.916 58.1151 129.816 57.9286 129.776 57.7255C129.736 57.5224 129.756 57.3119 129.836 57.1206C129.915 56.9293 130.049 56.7658 130.221 56.6507ZM138.506 60.5243C137.947 60.0103 137.213 59.7304 136.454 59.7425C134.514 59.7425 133.104 61.2781 133.104 63.2461C133.104 65.2141 134.527 66.7349 136.454 66.7349C137.204 66.7499 137.932 66.4812 138.493 65.9827V66.6801C138.493 67.7552 137.739 68.509 136.637 68.509C135.749 68.509 135.087 68.0055 134.86 67.2384L133.38 67.7834C133.8 69.1368 135.028 70.0446 136.637 70.0446C138.675 70.0446 140.085 68.62 140.085 66.7216V59.8965H138.506V60.5243ZM136.623 65.186C136.368 65.1923 136.115 65.1468 135.878 65.0523C135.642 64.9578 135.427 64.8162 135.247 64.6362C135.067 64.4561 134.926 64.2414 134.831 64.005C134.737 63.7686 134.691 63.5154 134.697 63.2609C134.697 62.1296 135.507 61.2929 136.623 61.2929C137.738 61.2929 138.548 62.1296 138.548 63.2609C138.554 63.5154 138.508 63.7686 138.414 64.005C138.319 64.2414 138.178 64.4561 137.998 64.6362C137.818 64.8162 137.603 64.9578 137.367 65.0523C137.13 65.1468 136.877 65.1923 136.623 65.186ZM142.063 59.895H143.653V66.9304H142.063V59.895ZM142.858 56.4743C142.651 56.4743 142.449 56.5357 142.277 56.6507C142.104 56.7658 141.97 56.9293 141.891 57.1206C141.812 57.3119 141.791 57.5224 141.831 57.7255C141.872 57.9286 141.972 58.1151 142.118 58.2615C142.264 58.4079 142.451 58.5077 142.654 58.5481C142.857 58.5885 143.068 58.5677 143.259 58.4885C143.45 58.4092 143.614 58.275 143.729 58.1029C143.844 57.9307 143.905 57.7283 143.905 57.5212C143.909 57.3827 143.884 57.2449 143.833 57.1163C143.782 56.9876 143.705 56.8707 143.607 56.7728C143.509 56.6748 143.392 56.5978 143.263 56.5465C143.134 56.4952 142.997 56.4706 142.858 56.4743ZM146.571 58.4852H147.45L147.452 59.8964H149.741V61.4039H147.452V64.4751C147.452 65.0467 147.815 65.4243 148.388 65.4243H149.741V66.9318H148.053C146.75 66.9318 145.861 66.0655 145.861 64.7683V61.4039H144.881V60.5791L146.571 58.4852ZM153.785 59.7484C152.223 59.7484 151.078 60.7849 150.972 62.1769H152.525C152.623 61.6601 153.117 61.2973 153.781 61.2973C154.521 61.2973 155.079 61.7727 155.079 62.4005V62.596L153.237 62.7633C151.798 62.8892 150.807 63.56 150.807 64.9268C150.807 66.1974 151.785 67.0903 153.237 67.0903C154.046 67.0903 154.634 66.8534 155.079 66.421V66.9378H156.643V62.4005C156.648 60.8575 155.487 59.7484 153.785 59.7484ZM155.084 64.487C155.084 65.2111 154.469 65.7279 153.548 65.7279C152.795 65.7279 152.404 65.3518 152.404 64.8913C152.404 64.4307 152.7 64.0813 153.464 64.0117L155.084 63.8725V64.487ZM162.952 58.5637C163.159 58.564 163.361 58.5028 163.534 58.388C163.706 58.2731 163.84 58.1097 163.92 57.9184C163.999 57.7271 164.02 57.5166 163.98 57.3134C163.94 57.1102 163.84 56.9235 163.694 56.777C163.548 56.6304 163.361 56.5305 163.158 56.49C162.955 56.4495 162.744 56.4702 162.553 56.5494C162.361 56.6285 162.198 56.7627 162.083 56.9349C161.968 57.1071 161.906 57.3096 161.906 57.5168C161.902 57.6552 161.927 57.7929 161.978 57.9216C162.029 58.0502 162.106 58.1672 162.204 58.2651C162.301 58.3631 162.418 58.4401 162.547 58.4915C162.675 58.5428 162.813 58.5674 162.952 58.5637ZM162.156 59.895H163.747V66.9304H162.156V59.895ZM74.5255 45.8212H40.0756V0.673747H74.5255V7.90906H47.4368V19.5365H62.713V26.7718H47.4368V38.5859H74.5255V45.8212ZM111.137 32.8343L90.1704 0.673747H82.8107V45.8212H90.1704V13.6606L111.137 45.8212H118.497V0.673747H111.137V32.8343ZM126.787 0.673747H141.321C154.432 0.673747 163.898 10.5212 163.898 23.32C163.898 36.1188 154.434 45.8286 141.323 45.8286H138.013V53.058L127.175 42.2035L138.013 31.3609V38.5799H141.198C150.107 38.5799 156.474 31.9621 156.474 23.3037C156.474 14.521 150.104 7.90314 141.198 7.90314H134.209V23.5999L126.787 31.1106V0.673747Z" fill="#0B3EE3"/>
</g>
<defs>
<clipPath id="clip0_1_16342">
<rect width="164" height="70" fill="white"/>
</clipPath>
</defs>
</svg>
